# Blender v2.93.5 OBJ File: ''
# www.blender.org
mtllib arrow.mtl
o Plane
v -0.120000 0.000000 0.120000
v 0.120000 0.000000 0.120000
v -0.048000 0.000000 -0.180000
v 0.048000 0.000000 -0.180000
v -0.048000 0.000000 0.120000
v 0.048000 0.000000 0.120000
v 0.000000 0.000000 0.300000
vt 1.000000 0.300000
vt 0.000000 1.000000
vt 0.000000 0.300000
vt 0.500000 0.000000
vt 0.000000 0.000000
vt 1.000000 0.000000
vt 1.000000 1.000000
vn 0.0000 1.0000 0.0000
usemtl None
s off
f 6/1/1 3/2/1 5/3/1
f 7/4/1 6/1/1 5/3/1
f 5/3/1 1/5/1 7/4/1
f 7/4/1 2/6/1 6/1/1
f 6/1/1 4/7/1 3/2/1
