# Blender v2.93.4 OBJ File: 'pipe-straight.blend'
# www.blender.org
mtllib pipe-straight.mtl
o Cylinder_Cylinder.001
v 0.000000 0.400000 -0.500000
v 0.000000 0.400000 0.500000
v 0.153073 0.369552 -0.500000
v 0.153073 0.369552 0.500000
v 0.282843 0.282843 -0.500000
v 0.282843 0.282843 0.500000
v 0.369552 0.153073 -0.500000
v 0.369552 0.153073 0.500000
v 0.400000 0.000000 -0.500000
v 0.400000 -0.000000 0.500000
v 0.369552 -0.153073 -0.500000
v 0.369552 -0.153073 0.500000
v 0.282843 -0.282843 -0.500000
v 0.282843 -0.282843 0.500000
v 0.153073 -0.369552 -0.500000
v 0.153073 -0.369552 0.500000
v -0.000000 -0.400000 -0.500000
v -0.000000 -0.400000 0.500000
v -0.153073 -0.369552 -0.500000
v -0.153073 -0.369552 0.500000
v -0.282843 -0.282843 -0.500000
v -0.282843 -0.282843 0.500000
v -0.369552 -0.153073 -0.500000
v -0.369552 -0.153073 0.500000
v -0.400000 0.000000 -0.500000
v -0.400000 -0.000000 0.500000
v -0.369552 0.153073 -0.500000
v -0.369552 0.153073 0.500000
v -0.282843 0.282843 -0.500000
v -0.282843 0.282843 0.500000
v -0.153073 0.369552 -0.500000
v -0.153073 0.369552 0.500000
vt 0.875000 1.000000
vt 0.937500 0.500000
vt 0.937500 1.000000
vt 0.812500 1.000000
vt 0.875000 0.500000
vt 0.750000 1.000000
vt 0.812500 0.500000
vt 0.687500 1.000000
vt 0.750000 0.500000
vt 0.625000 1.000000
vt 0.687500 0.500000
vt 0.562500 1.000000
vt 0.625000 0.500000
vt 0.500000 1.000000
vt 0.562500 0.500000
vt 0.437500 1.000000
vt 0.500000 0.500000
vt 0.375000 1.000000
vt 0.437500 0.500000
vt 0.312500 1.000000
vt 0.375000 0.500000
vt 0.250000 1.000000
vt 0.312500 0.500000
vt 0.187500 1.000000
vt 0.250000 0.500000
vt 0.125000 1.000000
vt 0.187500 0.500000
vt 0.062500 1.000000
vt 0.125000 0.500000
vt 0.000000 1.000000
vt 0.062500 0.500000
vt 1.000000 0.500000
vt 0.000000 0.500000
vt 1.000000 1.000000
vn 0.7071 0.7071 0.0000
vn 0.3827 0.9239 0.0000
vn 0.9239 0.3827 0.0000
vn 1.0000 0.0000 -0.0000
vn 0.9239 -0.3827 -0.0000
vn 0.7071 -0.7071 -0.0000
vn 0.3827 -0.9239 -0.0000
vn -0.0000 -1.0000 -0.0000
vn -0.3827 -0.9239 -0.0000
vn -0.7071 -0.7071 -0.0000
vn -0.9239 -0.3827 -0.0000
vn -1.0000 0.0000 0.0000
vn -0.9239 0.3827 0.0000
vn -0.7071 0.7071 0.0000
vn -0.3827 0.9239 0.0000
vn 0.0000 1.0000 0.0000
usemtl Glass
s 1
f 6/1/1 3/2/2 4/3/2
f 8/4/3 5/5/1 6/1/1
f 10/6/4 7/7/3 8/4/3
f 12/8/5 9/9/4 10/6/4
f 14/10/6 11/11/5 12/8/5
f 16/12/7 13/13/6 14/10/6
f 18/14/8 15/15/7 16/12/7
f 20/16/9 17/17/8 18/14/8
f 22/18/10 19/19/9 20/16/9
f 24/20/11 21/21/10 22/18/10
f 26/22/12 23/23/11 24/20/11
f 28/24/13 25/25/12 26/22/12
f 30/26/14 27/27/13 28/24/13
f 32/28/15 29/29/14 30/26/14
f 2/30/16 31/31/15 32/28/15
f 6/1/1 5/5/1 3/2/2
f 4/3/2 3/2/2 1/32/16
f 2/30/16 1/33/16 31/31/15
f 32/28/15 31/31/15 29/29/14
f 30/26/14 29/29/14 27/27/13
f 28/24/13 27/27/13 25/25/12
f 26/22/12 25/25/12 23/23/11
f 24/20/11 23/23/11 21/21/10
f 22/18/10 21/21/10 19/19/9
f 20/16/9 19/19/9 17/17/8
f 18/14/8 17/17/8 15/15/7
f 16/12/7 15/15/7 13/13/6
f 14/10/6 13/13/6 11/11/5
f 12/8/5 11/11/5 9/9/4
f 10/6/4 9/9/4 7/7/3
f 8/4/3 7/7/3 5/5/1
f 4/3/2 1/32/16 2/34/16
