# Blender v2.93.5 OBJ File: 'stick-curve-wide.blend'
# www.blender.org
mtllib stick-curve-wide.mtl
o Torus
v -0.000000 1.550000 -0.000000
v 0.050000 1.500000 -0.000000
v -0.000000 1.450000 -0.000000
v -0.050000 1.500000 -0.000000
v -0.000000 1.542536 0.151926
v 0.050000 1.492777 0.147025
v -0.000000 1.443018 0.142124
v -0.050000 1.492777 0.147025
v -0.000000 1.520217 0.302390
v 0.050000 1.471178 0.292635
v -0.000000 1.422139 0.282881
v -0.050000 1.471178 0.292635
v -0.000000 1.483258 0.449941
v 0.050000 1.435411 0.435427
v -0.000000 1.387564 0.420913
v -0.050000 1.435411 0.435427
v -0.000000 1.432014 0.593159
v 0.050000 1.385820 0.574025
v -0.000000 1.339626 0.554890
v -0.050000 1.385820 0.574025
v -0.000000 1.366978 0.730665
v 0.050000 1.322882 0.707095
v -0.000000 1.278786 0.683525
v -0.050000 1.322882 0.707095
v -0.000000 1.288778 0.861134
v 0.050000 1.247204 0.833356
v -0.000000 1.205631 0.805577
v -0.050000 1.247204 0.833356
v -0.000000 1.198167 0.983309
v 0.050000 1.159516 0.951589
v -0.000000 1.120866 0.919870
v -0.050000 1.159516 0.951589
v -0.000000 1.096016 1.096015
v 0.050000 1.060660 1.060660
v -0.000000 1.025305 1.025305
v -0.050000 1.060660 1.060660
v -0.000000 0.983310 1.198166
v 0.050000 0.951590 1.159516
v -0.000000 0.919870 1.120865
v -0.050000 0.951590 1.159516
v -0.000000 0.861135 1.288777
v 0.050000 0.833356 1.247204
v -0.000000 0.805578 1.205630
v -0.050000 0.833356 1.247204
v -0.000000 0.730665 1.366978
v 0.050000 0.707096 1.322882
v -0.000000 0.683526 1.278786
v -0.050000 0.707096 1.322882
v -0.000000 0.593159 1.432013
v 0.050000 0.574025 1.385819
v -0.000000 0.554891 1.339625
v -0.050000 0.574025 1.385819
v -0.000000 0.449941 1.483258
v 0.050000 0.435427 1.435411
v -0.000000 0.420913 1.387564
v -0.050000 0.435427 1.435411
v -0.000000 0.302391 1.520217
v 0.050000 0.292636 1.471178
v -0.000000 0.282882 1.422139
v -0.050000 0.292636 1.471178
v -0.000000 0.151927 1.542536
v 0.050000 0.147026 1.492777
v -0.000000 0.142125 1.443018
v -0.050000 0.147026 1.492777
v 0.000000 -0.000000 1.550000
v 0.050000 -0.000000 1.500000
v 0.000000 -0.000000 1.450000
v -0.050000 -0.000000 1.500000
vt 0.000000 0.500000
vt 0.062500 0.500000
vt 0.062500 0.500000
vt 0.000000 0.500000
vt 0.062500 0.500000
vt 0.000000 0.500000
vt 0.062500 0.500000
vt 0.000000 0.500000
vt 0.125000 0.500000
vt 0.125000 0.500000
vt 0.125000 0.500000
vt 0.125000 0.500000
vt 0.187500 0.500000
vt 0.187500 0.500000
vt 0.187500 0.500000
vt 0.187500 0.500000
vt 0.250000 0.500000
vt 0.250000 0.500000
vt 0.250000 0.500000
vt 0.250000 0.500000
vt 0.312500 0.500000
vt 0.312500 0.500000
vt 0.312500 0.500000
vt 0.312500 0.500000
vt 0.375000 0.500000
vt 0.375000 0.500000
vt 0.375000 0.500000
vt 0.375000 0.500000
vt 0.437500 0.500000
vt 0.437500 0.500000
vt 0.437500 0.500000
vt 0.437500 0.500000
vt 0.500000 0.500000
vt 0.500000 0.500000
vt 0.500000 0.500000
vt 0.500000 0.500000
vt 0.562500 0.500000
vt 0.562500 0.500000
vt 0.562500 0.500000
vt 0.562500 0.500000
vt 0.625000 0.500000
vt 0.625000 0.500000
vt 0.625000 0.500000
vt 0.625000 0.500000
vt 0.687500 0.500000
vt 0.687500 0.500000
vt 0.687500 0.500000
vt 0.687500 0.500000
vt 0.750000 0.500000
vt 0.750000 0.500000
vt 0.750000 0.500000
vt 0.750000 0.500000
vt 0.812500 0.500000
vt 0.812500 0.500000
vt 0.812500 0.500000
vt 0.812500 0.500000
vt 0.875000 0.500000
vt 0.875000 0.500000
vt 0.875000 0.500000
vt 0.875000 0.500000
vt 0.937500 0.500000
vt 0.937500 0.500000
vt 0.937500 0.500000
vt 0.937500 0.500000
vt 1.000000 0.500000
vt 1.000000 0.500000
vt 1.000000 0.500000
vt 1.000000 0.500000
vn 0.0000 0.9988 0.0490
vn 0.0000 0.9952 0.0980
vn 0.9998 0.0220 0.0021
vn 0.9997 0.0221 0.0011
vn 0.0000 -0.9952 -0.0980
vn 0.0000 -0.9988 -0.0490
vn -0.9998 0.0220 0.0021
vn -0.9997 0.0221 0.0011
vn 0.0000 0.9808 0.1951
vn 0.9998 0.0216 0.0043
vn 0.0000 -0.9808 -0.1951
vn -0.9998 0.0216 0.0043
vn 0.0000 0.9569 0.2903
vn 0.9998 0.0211 0.0064
vn 0.0000 -0.9569 -0.2903
vn -0.9998 0.0211 0.0064
vn 0.0000 0.9239 0.3827
vn 0.9998 0.0204 0.0084
vn 0.0000 -0.9239 -0.3827
vn -0.9998 0.0204 0.0084
vn 0.0000 0.8819 0.4714
vn 0.9998 0.0195 0.0104
vn 0.0000 -0.8819 -0.4714
vn -0.9998 0.0195 0.0104
vn 0.0000 0.8314 0.5556
vn 0.9998 0.0183 0.0123
vn 0.0000 -0.8314 -0.5556
vn -0.9998 0.0183 0.0123
vn 0.0000 0.7730 0.6344
vn 0.9998 0.0171 0.0140
vn 0.0000 -0.7730 -0.6344
vn -0.9998 0.0171 0.0140
vn 0.0000 0.7071 0.7071
vn 0.9998 0.0156 0.0156
vn 0.0000 -0.7071 -0.7071
vn -0.9998 0.0156 0.0156
vn 0.0000 0.6344 0.7730
vn 0.9998 0.0140 0.0171
vn 0.0000 -0.6344 -0.7730
vn -0.9998 0.0140 0.0171
vn 0.0000 0.5556 0.8314
vn 0.9998 0.0123 0.0183
vn 0.0000 -0.5556 -0.8314
vn -0.9998 0.0123 0.0183
vn 0.0000 0.4714 0.8819
vn 0.9998 0.0104 0.0195
vn 0.0000 -0.4714 -0.8819
vn -0.9998 0.0104 0.0195
vn 0.0000 0.3827 0.9239
vn 0.9998 0.0084 0.0204
vn 0.0000 -0.3827 -0.9239
vn -0.9998 0.0084 0.0204
vn 0.0000 0.2903 0.9569
vn 0.9998 0.0064 0.0211
vn 0.0000 -0.2903 -0.9569
vn -0.9998 0.0064 0.0211
vn 0.0000 0.1951 0.9808
vn 0.9998 0.0043 0.0216
vn 0.0000 -0.1951 -0.9808
vn -0.9998 0.0043 0.0216
vn 0.0000 0.0980 0.9952
vn 0.9998 0.0021 0.0220
vn 0.0000 -0.0980 -0.9952
vn -0.9998 0.0021 0.0220
vn 0.0000 0.0490 0.9988
vn 0.9997 0.0011 0.0221
vn 0.0000 -0.0490 -0.9988
vn -0.9997 0.0011 0.0221
usemtl None
s 1
f 1/1/1 5/2/2 6/3/3 2/4/4
f 2/4/4 6/3/3 7/5/5 3/6/6
f 3/6/6 7/5/5 8/7/7 4/8/8
f 4/8/8 8/7/7 5/2/2 1/1/1
f 5/2/2 9/9/9 10/10/10 6/3/3
f 6/3/3 10/10/10 11/11/11 7/5/5
f 7/5/5 11/11/11 12/12/12 8/7/7
f 8/7/7 12/12/12 9/9/9 5/2/2
f 9/9/9 13/13/13 14/14/14 10/10/10
f 10/10/10 14/14/14 15/15/15 11/11/11
f 11/11/11 15/15/15 16/16/16 12/12/12
f 12/12/12 16/16/16 13/13/13 9/9/9
f 13/13/13 17/17/17 18/18/18 14/14/14
f 14/14/14 18/18/18 19/19/19 15/15/15
f 15/15/15 19/19/19 20/20/20 16/16/16
f 16/16/16 20/20/20 17/17/17 13/13/13
f 17/17/17 21/21/21 22/22/22 18/18/18
f 18/18/18 22/22/22 23/23/23 19/19/19
f 19/19/19 23/23/23 24/24/24 20/20/20
f 20/20/20 24/24/24 21/21/21 17/17/17
f 21/21/21 25/25/25 26/26/26 22/22/22
f 22/22/22 26/26/26 27/27/27 23/23/23
f 23/23/23 27/27/27 28/28/28 24/24/24
f 24/24/24 28/28/28 25/25/25 21/21/21
f 25/25/25 29/29/29 30/30/30 26/26/26
f 26/26/26 30/30/30 31/31/31 27/27/27
f 27/27/27 31/31/31 32/32/32 28/28/28
f 28/28/28 32/32/32 29/29/29 25/25/25
f 29/29/29 33/33/33 34/34/34 30/30/30
f 30/30/30 34/34/34 35/35/35 31/31/31
f 31/31/31 35/35/35 36/36/36 32/32/32
f 32/32/32 36/36/36 33/33/33 29/29/29
f 33/33/33 37/37/37 38/38/38 34/34/34
f 34/34/34 38/38/38 39/39/39 35/35/35
f 35/35/35 39/39/39 40/40/40 36/36/36
f 36/36/36 40/40/40 37/37/37 33/33/33
f 37/37/37 41/41/41 42/42/42 38/38/38
f 38/38/38 42/42/42 43/43/43 39/39/39
f 39/39/39 43/43/43 44/44/44 40/40/40
f 40/40/40 44/44/44 41/41/41 37/37/37
f 41/41/41 45/45/45 46/46/46 42/42/42
f 42/42/42 46/46/46 47/47/47 43/43/43
f 43/43/43 47/47/47 48/48/48 44/44/44
f 44/44/44 48/48/48 45/45/45 41/41/41
f 45/45/45 49/49/49 50/50/50 46/46/46
f 46/46/46 50/50/50 51/51/51 47/47/47
f 47/47/47 51/51/51 52/52/52 48/48/48
f 48/48/48 52/52/52 49/49/49 45/45/45
f 49/49/49 53/53/53 54/54/54 50/50/50
f 50/50/50 54/54/54 55/55/55 51/51/51
f 51/51/51 55/55/55 56/56/56 52/52/52
f 52/52/52 56/56/56 53/53/53 49/49/49
f 53/53/53 57/57/57 58/58/58 54/54/54
f 54/54/54 58/58/58 59/59/59 55/55/55
f 55/55/55 59/59/59 60/60/60 56/56/56
f 56/56/56 60/60/60 57/57/57 53/53/53
f 57/57/57 61/61/61 62/62/62 58/58/58
f 58/58/58 62/62/62 63/63/63 59/59/59
f 59/59/59 63/63/63 64/64/64 60/60/60
f 60/60/60 64/64/64 61/61/61 57/57/57
f 61/61/61 65/65/65 66/66/66 62/62/62
f 62/62/62 66/66/66 67/67/67 63/63/63
f 63/63/63 67/67/67 68/68/68 64/64/64
f 64/64/64 68/68/68 65/65/65 61/61/61
