# Blender v2.93.5 OBJ File: 'stick-curve-wider.blend'
# www.blender.org
mtllib stick-curve-wider.mtl
o Torus.001
v -0.000000 2.550000 -0.000000
v 0.050000 2.500000 -0.000000
v -0.000000 2.450000 -0.000000
v -0.050000 2.500000 -0.000000
v -0.000000 2.546928 0.125121
v 0.050000 2.496989 0.122668
v -0.000000 2.447049 0.120215
v -0.050000 2.496989 0.122668
v -0.000000 2.537721 0.249943
v 0.050000 2.487962 0.245042
v -0.000000 2.438203 0.240141
v -0.050000 2.487962 0.245042
v -0.000000 2.522400 0.374162
v 0.050000 2.472941 0.366826
v -0.000000 2.423482 0.359489
v -0.050000 2.472941 0.366826
v -0.000000 2.501003 0.497480
v 0.050000 2.451963 0.487726
v -0.000000 2.402924 0.477971
v -0.050000 2.451963 0.487726
v -0.000000 2.473579 0.619600
v 0.050000 2.425078 0.607451
v -0.000000 2.376576 0.595302
v -0.050000 2.425078 0.607451
v -0.000000 2.440198 0.740225
v 0.050000 2.392351 0.725711
v -0.000000 2.344504 0.711197
v -0.050000 2.392351 0.725711
v -0.000000 2.400938 0.859069
v 0.050000 2.353860 0.842224
v -0.000000 2.306783 0.825380
v -0.050000 2.353860 0.842224
v -0.000000 2.355893 0.975842
v 0.050000 2.309699 0.956708
v -0.000000 2.263505 0.937574
v -0.050000 2.309699 0.956708
v -0.000000 2.305173 1.090265
v 0.050000 2.259974 1.068887
v -0.000000 2.214774 1.047509
v -0.050000 2.259974 1.068887
v -0.000000 2.248899 1.202061
v 0.050000 2.204803 1.178492
v -0.000000 2.160707 1.154922
v -0.050000 2.204803 1.178492
v -0.000000 2.187208 1.310962
v 0.050000 2.144321 1.285257
v -0.000000 2.101435 1.259552
v -0.050000 2.144321 1.285257
v -0.000000 2.120247 1.416704
v 0.050000 2.078674 1.388926
v -0.000000 2.037100 1.361147
v -0.050000 2.078674 1.388926
v -0.000000 2.048179 1.519033
v 0.050000 2.008019 1.489248
v -0.000000 1.967859 1.459463
v -0.050000 2.008019 1.489248
v -0.000000 1.971177 1.617702
v 0.050000 1.932527 1.585982
v -0.000000 1.893876 1.554263
v -0.050000 1.932527 1.585982
v -0.000000 1.889426 1.712475
v 0.050000 1.852378 1.678897
v -0.000000 1.815331 1.645319
v -0.050000 1.852378 1.678897
v -0.000000 1.803123 1.803122
v 0.050000 1.767767 1.767766
v -0.000000 1.732412 1.732411
v -0.050000 1.767767 1.767766
v -0.000000 1.712476 1.889425
v 0.050000 1.678898 1.852378
v -0.000000 1.645320 1.815330
v -0.050000 1.678898 1.852378
v -0.000000 1.617703 1.971177
v 0.050000 1.585983 1.932526
v -0.000000 1.554264 1.893876
v -0.050000 1.585983 1.932526
v -0.000000 1.519033 2.048179
v 0.050000 1.489248 2.008019
v -0.000000 1.459463 1.967859
v -0.050000 1.489248 2.008019
v -0.000000 1.416705 2.120246
v 0.050000 1.388927 2.078673
v -0.000000 1.361148 2.037100
v -0.050000 1.388927 2.078673
v -0.000000 1.310963 2.187207
v 0.050000 1.285258 2.144321
v -0.000000 1.259553 2.101434
v -0.050000 1.285258 2.144321
v -0.000000 1.202062 2.248899
v 0.050000 1.178493 2.204803
v -0.000000 1.154923 2.160707
v -0.050000 1.178493 2.204803
v -0.000000 1.090266 2.305172
v 0.050000 1.068888 2.259973
v -0.000000 1.047511 2.214774
v -0.050000 1.068888 2.259973
v -0.000000 0.975843 2.355893
v 0.050000 0.956709 2.309699
v -0.000000 0.937575 2.263505
v -0.050000 0.956709 2.309699
v -0.000000 0.859069 2.400937
v 0.050000 0.842224 2.353860
v -0.000000 0.825380 2.306783
v -0.050000 0.842224 2.353860
v -0.000000 0.740225 2.440198
v 0.050000 0.725711 2.392351
v -0.000000 0.711197 2.344504
v -0.050000 0.725711 2.392351
v -0.000000 0.619601 2.473579
v 0.050000 0.607452 2.425078
v -0.000000 0.595303 2.376576
v -0.050000 0.607452 2.425078
v -0.000000 0.497482 2.501002
v 0.050000 0.487727 2.451963
v -0.000000 0.477972 2.402924
v -0.050000 0.487727 2.451963
v -0.000000 0.374164 2.522400
v 0.050000 0.366827 2.472941
v -0.000000 0.359490 2.423482
v -0.050000 0.366827 2.472941
v -0.000000 0.249944 2.537721
v 0.050000 0.245043 2.487962
v -0.000000 0.240142 2.438203
v -0.050000 0.245043 2.487962
v -0.000000 0.125123 2.546928
v 0.050000 0.122669 2.496989
v -0.000000 0.120216 2.447049
v -0.050000 0.122669 2.496989
v 0.000000 -0.000000 2.550000
v 0.050000 -0.000000 2.500000
v 0.000000 -0.000000 2.450000
v -0.050000 -0.000000 2.500000
vt 0.000000 0.500000
vt 0.031250 0.500000
vt 0.031250 0.500000
vt 0.000000 0.500000
vt 0.031250 0.500000
vt 0.000000 0.500000
vt 0.031250 0.500000
vt 0.000000 0.500000
vt 0.062500 0.500000
vt 0.062500 0.500000
vt 0.062500 0.500000
vt 0.062500 0.500000
vt 0.093750 0.500000
vt 0.093750 0.500000
vt 0.093750 0.500000
vt 0.093750 0.500000
vt 0.125000 0.500000
vt 0.125000 0.500000
vt 0.125000 0.500000
vt 0.125000 0.500000
vt 0.156250 0.500000
vt 0.156250 0.500000
vt 0.156250 0.500000
vt 0.156250 0.500000
vt 0.187500 0.500000
vt 0.187500 0.500000
vt 0.187500 0.500000
vt 0.187500 0.500000
vt 0.218750 0.500000
vt 0.218750 0.500000
vt 0.218750 0.500000
vt 0.218750 0.500000
vt 0.250000 0.500000
vt 0.250000 0.500000
vt 0.250000 0.500000
vt 0.250000 0.500000
vt 0.281250 0.500000
vt 0.281250 0.500000
vt 0.281250 0.500000
vt 0.281250 0.500000
vt 0.312500 0.500000
vt 0.312500 0.500000
vt 0.312500 0.500000
vt 0.312500 0.500000
vt 0.343750 0.500000
vt 0.343750 0.500000
vt 0.343750 0.500000
vt 0.343750 0.500000
vt 0.375000 0.500000
vt 0.375000 0.500000
vt 0.375000 0.500000
vt 0.375000 0.500000
vt 0.406250 0.500000
vt 0.406250 0.500000
vt 0.406250 0.500000
vt 0.406250 0.500000
vt 0.437500 0.500000
vt 0.437500 0.500000
vt 0.437500 0.500000
vt 0.437500 0.500000
vt 0.468750 0.500000
vt 0.468750 0.500000
vt 0.468750 0.500000
vt 0.468750 0.500000
vt 0.500000 0.500000
vt 0.500000 0.500000
vt 0.500000 0.500000
vt 0.500000 0.500000
vt 0.531250 0.500000
vt 0.531250 0.500000
vt 0.531250 0.500000
vt 0.531250 0.500000
vt 0.562500 0.500000
vt 0.562500 0.500000
vt 0.562500 0.500000
vt 0.562500 0.500000
vt 0.593750 0.500000
vt 0.593750 0.500000
vt 0.593750 0.500000
vt 0.593750 0.500000
vt 0.625000 0.500000
vt 0.625000 0.500000
vt 0.625000 0.500000
vt 0.625000 0.500000
vt 0.656250 0.500000
vt 0.656250 0.500000
vt 0.656250 0.500000
vt 0.656250 0.500000
vt 0.687500 0.500000
vt 0.687500 0.500000
vt 0.687500 0.500000
vt 0.687500 0.500000
vt 0.718750 0.500000
vt 0.718750 0.500000
vt 0.718750 0.500000
vt 0.718750 0.500000
vt 0.750000 0.500000
vt 0.750000 0.500000
vt 0.750000 0.500000
vt 0.750000 0.500000
vt 0.781250 0.500000
vt 0.781250 0.500000
vt 0.781250 0.500000
vt 0.781250 0.500000
vt 0.812500 0.500000
vt 0.812500 0.500000
vt 0.812500 0.500000
vt 0.812500 0.500000
vt 0.843750 0.500000
vt 0.843750 0.500000
vt 0.843750 0.500000
vt 0.843750 0.500000
vt 0.875000 0.500000
vt 0.875000 0.500000
vt 0.875000 0.500000
vt 0.875000 0.500000
vt 0.906250 0.500000
vt 0.906250 0.500000
vt 0.906250 0.500000
vt 0.906250 0.500000
vt 0.937500 0.500000
vt 0.937500 0.500000
vt 0.937500 0.500000
vt 0.937500 0.500000
vt 0.968750 0.500000
vt 0.968750 0.500000
vt 0.968750 0.500000
vt 0.968750 0.500000
vt 1.000000 0.500000
vt 1.000000 0.500000
vt 1.000000 0.500000
vt 1.000000 0.500000
vn 0.0000 0.9997 0.0245
vn 0.0000 0.9988 0.0490
vn 0.9999 0.0110 0.0005
vn 0.9999 0.0110 0.0002
vn 0.0000 -0.9988 -0.0490
vn 0.0000 -0.9997 -0.0245
vn -0.9999 0.0110 0.0005
vn -0.9999 0.0110 0.0002
vn 0.0000 0.9952 0.0980
vn 0.9999 0.0110 0.0011
vn 0.0000 -0.9952 -0.0980
vn -0.9999 0.0110 0.0011
vn 0.0000 0.9892 0.1467
vn 0.9999 0.0109 0.0016
vn 0.0000 -0.9892 -0.1467
vn -0.9999 0.0109 0.0016
vn 0.0000 0.9808 0.1951
vn 0.9999 0.0108 0.0021
vn 0.0000 -0.9808 -0.1951
vn -0.9999 0.0108 0.0021
vn 0.0000 0.9700 0.2430
vn 0.9999 0.0107 0.0027
vn 0.0000 -0.9700 -0.2430
vn -0.9999 0.0107 0.0027
vn 0.0000 0.9569 0.2903
vn 0.9999 0.0106 0.0032
vn 0.0000 -0.9569 -0.2903
vn -0.9999 0.0106 0.0032
vn 0.0000 0.9415 0.3369
vn 0.9999 0.0104 0.0037
vn 0.0000 -0.9415 -0.3369
vn -0.9999 0.0104 0.0037
vn 0.0000 0.9239 0.3827
vn 0.9999 0.0102 0.0042
vn 0.0000 -0.9239 -0.3827
vn -0.9999 0.0102 0.0042
vn 0.0000 0.9040 0.4275
vn 0.9999 0.0100 0.0047
vn 0.0000 -0.9040 -0.4275
vn -0.9999 0.0100 0.0047
vn 0.0000 0.8819 0.4714
vn 0.9999 0.0097 0.0052
vn 0.0000 -0.8819 -0.4714
vn -0.9999 0.0097 0.0052
vn 0.0000 0.8577 0.5141
vn 0.9999 0.0095 0.0057
vn 0.0000 -0.8577 -0.5141
vn -0.9999 0.0095 0.0057
vn 0.0000 0.8314 0.5556
vn 0.9999 0.0092 0.0061
vn 0.0000 -0.8314 -0.5556
vn -0.9999 0.0092 0.0061
vn 0.0000 0.8032 0.5957
vn 0.9999 0.0089 0.0066
vn 0.0000 -0.8032 -0.5957
vn -0.9999 0.0089 0.0066
vn 0.0000 0.7730 0.6344
vn 0.9999 0.0085 0.0070
vn 0.0000 -0.7730 -0.6344
vn -0.9999 0.0085 0.0070
vn 0.0000 0.7409 0.6715
vn 0.9999 0.0082 0.0074
vn 0.0000 -0.7409 -0.6715
vn -0.9999 0.0082 0.0074
vn 0.0000 0.7071 0.7071
vn 0.9999 0.0078 0.0078
vn 0.0000 -0.7071 -0.7071
vn -0.9999 0.0078 0.0078
vn 0.0000 0.6715 0.7409
vn 0.9999 0.0074 0.0082
vn 0.0000 -0.6715 -0.7409
vn -0.9999 0.0074 0.0082
vn 0.0000 0.6344 0.7730
vn 0.9999 0.0070 0.0085
vn 0.0000 -0.6344 -0.7730
vn -0.9999 0.0070 0.0085
vn 0.0000 0.5957 0.8032
vn 0.9999 0.0066 0.0089
vn 0.0000 -0.5957 -0.8032
vn -0.9999 0.0066 0.0089
vn 0.0000 0.5556 0.8314
vn 0.9999 0.0061 0.0092
vn 0.0000 -0.5556 -0.8314
vn -0.9999 0.0061 0.0092
vn 0.0000 0.5141 0.8577
vn 0.9999 0.0057 0.0095
vn 0.0000 -0.5141 -0.8577
vn -0.9999 0.0057 0.0095
vn 0.0000 0.4714 0.8819
vn 0.9999 0.0052 0.0097
vn 0.0000 -0.4714 -0.8819
vn -0.9999 0.0052 0.0097
vn 0.0000 0.4275 0.9040
vn 0.9999 0.0047 0.0100
vn 0.0000 -0.4275 -0.9040
vn -0.9999 0.0047 0.0100
vn 0.0000 0.3827 0.9239
vn 0.9999 0.0042 0.0102
vn 0.0000 -0.3827 -0.9239
vn -0.9999 0.0042 0.0102
vn 0.0000 0.3369 0.9415
vn 0.9999 0.0037 0.0104
vn 0.0000 -0.3369 -0.9415
vn -0.9999 0.0037 0.0104
vn 0.0000 0.2903 0.9569
vn 0.9999 0.0032 0.0106
vn 0.0000 -0.2903 -0.9569
vn -0.9999 0.0032 0.0106
vn 0.0000 0.2430 0.9700
vn 0.9999 0.0027 0.0107
vn 0.0000 -0.2430 -0.9700
vn -0.9999 0.0027 0.0107
vn 0.0000 0.1951 0.9808
vn 0.9999 0.0021 0.0108
vn 0.0000 -0.1951 -0.9808
vn -0.9999 0.0021 0.0108
vn 0.0000 0.1467 0.9892
vn 0.9999 0.0016 0.0109
vn 0.0000 -0.1467 -0.9892
vn -0.9999 0.0016 0.0109
vn 0.0000 0.0980 0.9952
vn 0.9999 0.0011 0.0110
vn 0.0000 -0.0980 -0.9952
vn -0.9999 0.0011 0.0110
vn 0.0000 0.0490 0.9988
vn 0.9999 0.0005 0.0110
vn 0.0000 -0.0490 -0.9988
vn -0.9999 0.0005 0.0110
vn 0.0000 0.0245 0.9997
vn 0.9999 0.0002 0.0110
vn 0.0000 -0.0245 -0.9997
vn -0.9999 0.0002 0.0110
usemtl None
s 1
f 1/1/1 5/2/2 6/3/3 2/4/4
f 2/4/4 6/3/3 7/5/5 3/6/6
f 3/6/6 7/5/5 8/7/7 4/8/8
f 4/8/8 8/7/7 5/2/2 1/1/1
f 5/2/2 9/9/9 10/10/10 6/3/3
f 6/3/3 10/10/10 11/11/11 7/5/5
f 7/5/5 11/11/11 12/12/12 8/7/7
f 8/7/7 12/12/12 9/9/9 5/2/2
f 9/9/9 13/13/13 14/14/14 10/10/10
f 10/10/10 14/14/14 15/15/15 11/11/11
f 11/11/11 15/15/15 16/16/16 12/12/12
f 12/12/12 16/16/16 13/13/13 9/9/9
f 13/13/13 17/17/17 18/18/18 14/14/14
f 14/14/14 18/18/18 19/19/19 15/15/15
f 15/15/15 19/19/19 20/20/20 16/16/16
f 16/16/16 20/20/20 17/17/17 13/13/13
f 17/17/17 21/21/21 22/22/22 18/18/18
f 18/18/18 22/22/22 23/23/23 19/19/19
f 19/19/19 23/23/23 24/24/24 20/20/20
f 20/20/20 24/24/24 21/21/21 17/17/17
f 21/21/21 25/25/25 26/26/26 22/22/22
f 22/22/22 26/26/26 27/27/27 23/23/23
f 23/23/23 27/27/27 28/28/28 24/24/24
f 24/24/24 28/28/28 25/25/25 21/21/21
f 25/25/25 29/29/29 30/30/30 26/26/26
f 26/26/26 30/30/30 31/31/31 27/27/27
f 27/27/27 31/31/31 32/32/32 28/28/28
f 28/28/28 32/32/32 29/29/29 25/25/25
f 29/29/29 33/33/33 34/34/34 30/30/30
f 30/30/30 34/34/34 35/35/35 31/31/31
f 31/31/31 35/35/35 36/36/36 32/32/32
f 32/32/32 36/36/36 33/33/33 29/29/29
f 33/33/33 37/37/37 38/38/38 34/34/34
f 34/34/34 38/38/38 39/39/39 35/35/35
f 35/35/35 39/39/39 40/40/40 36/36/36
f 36/36/36 40/40/40 37/37/37 33/33/33
f 37/37/37 41/41/41 42/42/42 38/38/38
f 38/38/38 42/42/42 43/43/43 39/39/39
f 39/39/39 43/43/43 44/44/44 40/40/40
f 40/40/40 44/44/44 41/41/41 37/37/37
f 41/41/41 45/45/45 46/46/46 42/42/42
f 42/42/42 46/46/46 47/47/47 43/43/43
f 43/43/43 47/47/47 48/48/48 44/44/44
f 44/44/44 48/48/48 45/45/45 41/41/41
f 45/45/45 49/49/49 50/50/50 46/46/46
f 46/46/46 50/50/50 51/51/51 47/47/47
f 47/47/47 51/51/51 52/52/52 48/48/48
f 48/48/48 52/52/52 49/49/49 45/45/45
f 49/49/49 53/53/53 54/54/54 50/50/50
f 50/50/50 54/54/54 55/55/55 51/51/51
f 51/51/51 55/55/55 56/56/56 52/52/52
f 52/52/52 56/56/56 53/53/53 49/49/49
f 53/53/53 57/57/57 58/58/58 54/54/54
f 54/54/54 58/58/58 59/59/59 55/55/55
f 55/55/55 59/59/59 60/60/60 56/56/56
f 56/56/56 60/60/60 57/57/57 53/53/53
f 57/57/57 61/61/61 62/62/62 58/58/58
f 58/58/58 62/62/62 63/63/63 59/59/59
f 59/59/59 63/63/63 64/64/64 60/60/60
f 60/60/60 64/64/64 61/61/61 57/57/57
f 61/61/61 65/65/65 66/66/66 62/62/62
f 62/62/62 66/66/66 67/67/67 63/63/63
f 63/63/63 67/67/67 68/68/68 64/64/64
f 64/64/64 68/68/68 65/65/65 61/61/61
f 65/65/65 69/69/69 70/70/70 66/66/66
f 66/66/66 70/70/70 71/71/71 67/67/67
f 67/67/67 71/71/71 72/72/72 68/68/68
f 68/68/68 72/72/72 69/69/69 65/65/65
f 69/69/69 73/73/73 74/74/74 70/70/70
f 70/70/70 74/74/74 75/75/75 71/71/71
f 71/71/71 75/75/75 76/76/76 72/72/72
f 72/72/72 76/76/76 73/73/73 69/69/69
f 73/73/73 77/77/77 78/78/78 74/74/74
f 74/74/74 78/78/78 79/79/79 75/75/75
f 75/75/75 79/79/79 80/80/80 76/76/76
f 76/76/76 80/80/80 77/77/77 73/73/73
f 77/77/77 81/81/81 82/82/82 78/78/78
f 78/78/78 82/82/82 83/83/83 79/79/79
f 79/79/79 83/83/83 84/84/84 80/80/80
f 80/80/80 84/84/84 81/81/81 77/77/77
f 81/81/81 85/85/85 86/86/86 82/82/82
f 82/82/82 86/86/86 87/87/87 83/83/83
f 83/83/83 87/87/87 88/88/88 84/84/84
f 84/84/84 88/88/88 85/85/85 81/81/81
f 85/85/85 89/89/89 90/90/90 86/86/86
f 86/86/86 90/90/90 91/91/91 87/87/87
f 87/87/87 91/91/91 92/92/92 88/88/88
f 88/88/88 92/92/92 89/89/89 85/85/85
f 89/89/89 93/93/93 94/94/94 90/90/90
f 90/90/90 94/94/94 95/95/95 91/91/91
f 91/91/91 95/95/95 96/96/96 92/92/92
f 92/92/92 96/96/96 93/93/93 89/89/89
f 93/93/93 97/97/97 98/98/98 94/94/94
f 94/94/94 98/98/98 99/99/99 95/95/95
f 95/95/95 99/99/99 100/100/100 96/96/96
f 96/96/96 100/100/100 97/97/97 93/93/93
f 97/97/97 101/101/101 102/102/102 98/98/98
f 98/98/98 102/102/102 103/103/103 99/99/99
f 99/99/99 103/103/103 104/104/104 100/100/100
f 100/100/100 104/104/104 101/101/101 97/97/97
f 101/101/101 105/105/105 106/106/106 102/102/102
f 102/102/102 106/106/106 107/107/107 103/103/103
f 103/103/103 107/107/107 108/108/108 104/104/104
f 104/104/104 108/108/108 105/105/105 101/101/101
f 105/105/105 109/109/109 110/110/110 106/106/106
f 106/106/106 110/110/110 111/111/111 107/107/107
f 107/107/107 111/111/111 112/112/112 108/108/108
f 108/108/108 112/112/112 109/109/109 105/105/105
f 109/109/109 113/113/113 114/114/114 110/110/110
f 110/110/110 114/114/114 115/115/115 111/111/111
f 111/111/111 115/115/115 116/116/116 112/112/112
f 112/112/112 116/116/116 113/113/113 109/109/109
f 113/113/113 117/117/117 118/118/118 114/114/114
f 114/114/114 118/118/118 119/119/119 115/115/115
f 115/115/115 119/119/119 120/120/120 116/116/116
f 116/116/116 120/120/120 117/117/117 113/113/113
f 117/117/117 121/121/121 122/122/122 118/118/118
f 118/118/118 122/122/122 123/123/123 119/119/119
f 119/119/119 123/123/123 124/124/124 120/120/120
f 120/120/120 124/124/124 121/121/121 117/117/117
f 121/121/121 125/125/125 126/126/126 122/122/122
f 122/122/122 126/126/126 127/127/127 123/123/123
f 123/123/123 127/127/127 128/128/128 124/124/124
f 124/124/124 128/128/128 125/125/125 121/121/121
f 125/125/125 129/129/129 130/130/130 126/126/126
f 126/126/126 130/130/130 131/131/131 127/127/127
f 127/127/127 131/131/131 132/132/132 128/128/128
f 128/128/128 132/132/132 129/129/129 125/125/125
