# Blender v2.93.5 OBJ File: 'stick-intersection-5.blend'
# www.blender.org
mtllib stick-intersection-5.mtl
o Cylinder.001_Cylinder.002
v -0.025000 -0.500000 -0.000000
v 0.000000 -0.500000 -0.025000
v 0.025000 -0.500000 -0.000000
v 0.000000 -0.500000 0.025000
v -0.025000 -0.375000 -0.000000
v -0.025000 -0.250000 -0.000000
v -0.025000 -0.125000 -0.000000
v -0.025000 -0.000000 -0.000000
v 0.000000 0.000000 -0.025000
v 0.000000 -0.125000 -0.025000
v 0.000000 -0.250000 -0.025000
v 0.000000 -0.375000 -0.025000
v 0.025000 0.000000 0.000000
v 0.025000 -0.125000 -0.000000
v 0.025000 -0.250000 -0.000000
v 0.025000 -0.375000 -0.000000
v -0.000000 -0.000000 0.025000
v 0.000000 -0.125000 0.025000
v 0.000000 -0.250000 0.025000
v 0.000000 -0.375000 0.025000
v 0.000000 -0.437500 -0.025000
v 0.025000 -0.437500 -0.000000
v 0.000000 -0.437500 0.025000
v -0.025000 -0.437500 -0.000000
v -0.025000 -0.312500 -0.000000
v -0.025000 -0.187500 -0.000000
v -0.025000 -0.062500 -0.000000
v 0.000000 -0.062500 -0.025000
v 0.000000 -0.187500 -0.025000
v 0.000000 -0.312500 -0.025000
v 0.025000 -0.062500 0.000000
v 0.025000 -0.187500 -0.000000
v 0.025000 -0.312500 -0.000000
v 0.000000 -0.062500 0.025000
v 0.000000 -0.187500 0.025000
v 0.000000 -0.312500 0.025000
vt 0.500000 0.062500
vt 0.500000 0.125000
vt 0.500000 0.125000
vt 0.500000 0.062500
vt 0.500000 0.187500
vt 0.500000 0.250000
vt 0.500000 0.250000
vt 0.500000 0.187500
vt 0.500000 0.312500
vt 0.500000 0.375000
vt 0.500000 0.375000
vt 0.500000 0.312500
vt 0.500000 0.437500
vt 0.500000 0.500000
vt 0.500000 0.500000
vt 0.500000 0.437500
vt 0.500000 0.062500
vt 0.500000 0.125000
vt 0.500000 0.187500
vt 0.500000 0.250000
vt 0.500000 0.312500
vt 0.500000 0.375000
vt 0.500000 0.437500
vt 0.500000 0.500000
vt 0.500000 0.062500
vt 0.500000 0.125000
vt 0.500000 0.187500
vt 0.500000 0.250000
vt 0.500000 0.312500
vt 0.500000 0.375000
vt 0.500000 0.437500
vt 0.500000 0.500000
vt 0.500000 0.000000
vt 0.500000 0.000000
vt 0.500000 0.000000
vt 0.500000 0.000000
vn 0.0000 0.0000 1.0000
vn -1.0000 0.0000 0.0000
vn 1.0000 0.0000 0.0000
vn 0.0000 0.0000 -1.0000
usemtl None
s 1
f 23/1/1 20/2/1 5/3/2 24/4/2
f 36/5/1 19/6/1 6/7/2 25/8/2
f 35/9/1 18/10/1 7/11/2 26/12/2
f 34/13/1 17/14/1 8/15/2 27/16/2
f 22/17/3 16/18/3 20/2/1 23/1/1
f 33/19/3 15/20/3 19/6/1 36/5/1
f 32/21/3 14/22/3 18/10/1 35/9/1
f 31/23/3 13/24/3 17/14/1 34/13/1
f 21/25/4 12/26/4 16/18/3 22/17/3
f 30/27/4 11/28/4 15/20/3 33/19/3
f 29/29/4 10/30/4 14/22/3 32/21/3
f 28/31/4 9/32/4 13/24/3 31/23/3
f 24/4/2 5/3/2 12/26/4 21/25/4
f 25/8/2 6/7/2 11/28/4 30/27/4
f 26/12/2 7/11/2 10/30/4 29/29/4
f 27/16/2 8/15/2 9/32/4 28/31/4
f 7/11/2 27/16/2 28/31/4 10/30/4
f 6/7/2 26/12/2 29/29/4 11/28/4
f 5/3/2 25/8/2 30/27/4 12/26/4
f 1/33/2 24/4/2 21/25/4 2/34/4
f 10/30/4 28/31/4 31/23/3 14/22/3
f 11/28/4 29/29/4 32/21/3 15/20/3
f 12/26/4 30/27/4 33/19/3 16/18/3
f 2/34/4 21/25/4 22/17/3 3/35/3
f 14/22/3 31/23/3 34/13/1 18/10/1
f 15/20/3 32/21/3 35/9/1 19/6/1
f 16/18/3 33/19/3 36/5/1 20/2/1
f 3/35/3 22/17/3 23/1/1 4/36/1
f 18/10/1 34/13/1 27/16/2 7/11/2
f 19/6/1 35/9/1 26/12/2 6/7/2
f 20/2/1 36/5/1 25/8/2 5/3/2
f 4/36/1 23/1/1 24/4/2 1/33/2
o Cylinder.002_Cylinder.001
v -0.025000 -0.000000 0.500000
v 0.000000 -0.025000 0.500000
v 0.025000 0.000000 0.500000
v 0.000000 0.025000 0.500000
v -0.025000 -0.000000 0.375000
v -0.025000 -0.000000 0.250000
v -0.025000 -0.000000 0.125000
v -0.025000 -0.000000 0.000000
v 0.000000 -0.025000 -0.000000
v 0.000000 -0.025000 0.125000
v 0.000000 -0.025000 0.250000
v 0.000000 -0.025000 0.375000
v 0.025000 0.000000 -0.000000
v 0.025000 0.000000 0.125000
v 0.025000 0.000000 0.250000
v 0.025000 0.000000 0.375000
v -0.000000 0.025000 0.000000
v 0.000000 0.025000 0.125000
v 0.000000 0.025000 0.250000
v 0.000000 0.025000 0.375000
v 0.000000 -0.025000 0.437500
v 0.025000 0.000000 0.437500
v 0.000000 0.025000 0.437500
v -0.025000 -0.000000 0.437500
v -0.025000 -0.000000 0.312500
v -0.025000 -0.000000 0.187500
v -0.025000 -0.000000 0.062500
v 0.000000 -0.025000 0.062500
v 0.000000 -0.025000 0.187500
v 0.000000 -0.025000 0.312500
v 0.025000 0.000000 0.062500
v 0.025000 0.000000 0.187500
v 0.025000 0.000000 0.312500
v 0.000000 0.025000 0.062500
v 0.000000 0.025000 0.187500
v 0.000000 0.025000 0.312500
vt 0.500000 0.062500
vt 0.500000 0.125000
vt 0.500000 0.125000
vt 0.500000 0.062500
vt 0.500000 0.187500
vt 0.500000 0.250000
vt 0.500000 0.250000
vt 0.500000 0.187500
vt 0.500000 0.312500
vt 0.500000 0.375000
vt 0.500000 0.375000
vt 0.500000 0.312500
vt 0.500000 0.437500
vt 0.500000 0.500000
vt 0.500000 0.500000
vt 0.500000 0.437500
vt 0.500000 0.062500
vt 0.500000 0.125000
vt 0.500000 0.187500
vt 0.500000 0.250000
vt 0.500000 0.312500
vt 0.500000 0.375000
vt 0.500000 0.437500
vt 0.500000 0.500000
vt 0.500000 0.062500
vt 0.500000 0.125000
vt 0.500000 0.187500
vt 0.500000 0.250000
vt 0.500000 0.312500
vt 0.500000 0.375000
vt 0.500000 0.437500
vt 0.500000 0.500000
vt 0.500000 0.000000
vt 0.500000 0.000000
vt 0.500000 0.000000
vt 0.500000 0.000000
vn 0.0000 1.0000 0.0000
vn -1.0000 0.0000 0.0000
vn 1.0000 0.0000 0.0000
vn 0.0000 -1.0000 0.0000
usemtl None
s 1
f 59/37/5 56/38/5 41/39/6 60/40/6
f 72/41/5 55/42/5 42/43/6 61/44/6
f 71/45/5 54/46/5 43/47/6 62/48/6
f 70/49/5 53/50/5 44/51/6 63/52/6
f 58/53/7 52/54/7 56/38/5 59/37/5
f 69/55/7 51/56/7 55/42/5 72/41/5
f 68/57/7 50/58/7 54/46/5 71/45/5
f 67/59/7 49/60/7 53/50/5 70/49/5
f 57/61/8 48/62/8 52/54/7 58/53/7
f 66/63/8 47/64/8 51/56/7 69/55/7
f 65/65/8 46/66/8 50/58/7 68/57/7
f 64/67/8 45/68/8 49/60/7 67/59/7
f 60/40/6 41/39/6 48/62/8 57/61/8
f 61/44/6 42/43/6 47/64/8 66/63/8
f 62/48/6 43/47/6 46/66/8 65/65/8
f 63/52/6 44/51/6 45/68/8 64/67/8
f 43/47/6 63/52/6 64/67/8 46/66/8
f 42/43/6 62/48/6 65/65/8 47/64/8
f 41/39/6 61/44/6 66/63/8 48/62/8
f 37/69/6 60/40/6 57/61/8 38/70/8
f 46/66/8 64/67/8 67/59/7 50/58/7
f 47/64/8 65/65/8 68/57/7 51/56/7
f 48/62/8 66/63/8 69/55/7 52/54/7
f 38/70/8 57/61/8 58/53/7 39/71/7
f 50/58/7 67/59/7 70/49/5 54/46/5
f 51/56/7 68/57/7 71/45/5 55/42/5
f 52/54/7 69/55/7 72/41/5 56/38/5
f 39/71/7 58/53/7 59/37/5 40/72/5
f 54/46/5 70/49/5 63/52/6 43/47/6
f 55/42/5 71/45/5 62/48/6 42/43/6
f 56/38/5 72/41/5 61/44/6 41/39/6
f 40/72/5 59/37/5 60/40/6 37/69/6
o Cylinder.003_Cylinder.004
v 0.500000 0.000000 0.025000
v 0.500000 -0.025000 -0.000000
v 0.500000 0.000000 -0.025000
v 0.500000 0.025000 -0.000000
v 0.375000 0.000000 0.025000
v 0.250000 0.000000 0.025000
v 0.125000 0.000000 0.025000
v 0.000000 0.000000 0.025000
v 0.000000 -0.025000 -0.000000
v 0.125000 -0.025000 -0.000000
v 0.250000 -0.025000 -0.000000
v 0.375000 -0.025000 -0.000000
v -0.000000 0.000000 -0.025000
v 0.125000 0.000000 -0.025000
v 0.250000 0.000000 -0.025000
v 0.375000 0.000000 -0.025000
v -0.000000 0.025000 0.000000
v 0.125000 0.025000 -0.000000
v 0.250000 0.025000 -0.000000
v 0.375000 0.025000 -0.000000
v 0.437500 -0.025000 -0.000000
v 0.437500 0.000000 -0.025000
v 0.437500 0.025000 -0.000000
v 0.437500 0.000000 0.025000
v 0.312500 0.000000 0.025000
v 0.187500 0.000000 0.025000
v 0.062500 0.000000 0.025000
v 0.062500 -0.025000 -0.000000
v 0.187500 -0.025000 -0.000000
v 0.312500 -0.025000 -0.000000
v 0.062500 0.000000 -0.025000
v 0.187500 0.000000 -0.025000
v 0.312500 0.000000 -0.025000
v 0.062500 0.025000 -0.000000
v 0.187500 0.025000 -0.000000
v 0.312500 0.025000 -0.000000
vt 0.500000 0.062500
vt 0.500000 0.125000
vt 0.500000 0.125000
vt 0.500000 0.062500
vt 0.500000 0.187500
vt 0.500000 0.250000
vt 0.500000 0.250000
vt 0.500000 0.187500
vt 0.500000 0.312500
vt 0.500000 0.375000
vt 0.500000 0.375000
vt 0.500000 0.312500
vt 0.500000 0.437500
vt 0.500000 0.500000
vt 0.500000 0.500000
vt 0.500000 0.437500
vt 0.500000 0.062500
vt 0.500000 0.125000
vt 0.500000 0.187500
vt 0.500000 0.250000
vt 0.500000 0.312500
vt 0.500000 0.375000
vt 0.500000 0.437500
vt 0.500000 0.500000
vt 0.500000 0.062500
vt 0.500000 0.125000
vt 0.500000 0.187500
vt 0.500000 0.250000
vt 0.500000 0.312500
vt 0.500000 0.375000
vt 0.500000 0.437500
vt 0.500000 0.500000
vt 0.500000 0.000000
vt 0.500000 0.000000
vt 0.500000 0.000000
vt 0.500000 0.000000
vn 0.0000 1.0000 0.0000
vn 0.0000 0.0000 1.0000
vn 0.0000 0.0000 -1.0000
vn 0.0000 -1.0000 0.0000
usemtl None
s 1
f 95/73/9 92/74/9 77/75/10 96/76/10
f 108/77/9 91/78/9 78/79/10 97/80/10
f 107/81/9 90/82/9 79/83/10 98/84/10
f 106/85/9 89/86/9 80/87/10 99/88/10
f 94/89/11 88/90/11 92/74/9 95/73/9
f 105/91/11 87/92/11 91/78/9 108/77/9
f 104/93/11 86/94/11 90/82/9 107/81/9
f 103/95/11 85/96/11 89/86/9 106/85/9
f 93/97/12 84/98/12 88/90/11 94/89/11
f 102/99/12 83/100/12 87/92/11 105/91/11
f 101/101/12 82/102/12 86/94/11 104/93/11
f 100/103/12 81/104/12 85/96/11 103/95/11
f 96/76/10 77/75/10 84/98/12 93/97/12
f 97/80/10 78/79/10 83/100/12 102/99/12
f 98/84/10 79/83/10 82/102/12 101/101/12
f 99/88/10 80/87/10 81/104/12 100/103/12
f 79/83/10 99/88/10 100/103/12 82/102/12
f 78/79/10 98/84/10 101/101/12 83/100/12
f 77/75/10 97/80/10 102/99/12 84/98/12
f 73/105/10 96/76/10 93/97/12 74/106/12
f 82/102/12 100/103/12 103/95/11 86/94/11
f 83/100/12 101/101/12 104/93/11 87/92/11
f 84/98/12 102/99/12 105/91/11 88/90/11
f 74/106/12 93/97/12 94/89/11 75/107/11
f 86/94/11 103/95/11 106/85/9 90/82/9
f 87/92/11 104/93/11 107/81/9 91/78/9
f 88/90/11 105/91/11 108/77/9 92/74/9
f 75/107/11 94/89/11 95/73/9 76/108/9
f 90/82/9 106/85/9 99/88/10 79/83/10
f 91/78/9 107/81/9 98/84/10 78/79/10
f 92/74/9 108/77/9 97/80/10 77/75/10
f 76/108/9 95/73/9 96/76/10 73/105/10
