# Blender v2.93.5 OBJ File: 'stick-curve.blend'
# www.blender.org
mtllib stick-curve.mtl
o Cylinder_Cylinder.001
v -0.000000 -0.500000 -0.025000
v -0.000000 -0.025000 -0.500000
v 0.025000 -0.500000 0.000000
v 0.025000 0.000000 -0.500000
v -0.000000 -0.500000 0.025000
v -0.000000 0.025000 -0.500000
v -0.025000 -0.500000 -0.000000
v -0.025000 0.000000 -0.500000
v -0.000000 -0.375000 -0.025000
v -0.000000 -0.250000 -0.025000
v -0.000000 -0.142542 -0.024478
v -0.000000 -0.051671 -0.047446
v -0.000000 -0.026190 -0.145082
v -0.000000 -0.025000 -0.250000
v -0.000000 -0.025000 -0.375000
v 0.025000 -0.000000 -0.375000
v 0.025000 0.000000 -0.250000
v 0.025000 -0.000485 -0.141752
v 0.025000 -0.033434 -0.030346
v 0.025000 -0.138012 0.000817
v 0.025000 -0.250000 0.000000
v 0.025000 -0.375000 0.000000
v -0.000000 0.025000 -0.375000
v -0.000000 0.025000 -0.250000
v -0.000000 0.025147 -0.138472
v -0.000000 -0.015196 -0.013247
v -0.000000 -0.133553 0.026065
v -0.000000 -0.250000 0.025000
v -0.000000 -0.375000 0.025000
v -0.025000 -0.000000 -0.375000
v -0.025000 0.000000 -0.250000
v -0.025000 -0.000485 -0.141752
v -0.025000 -0.033434 -0.030346
v -0.025000 -0.138012 0.000817
v -0.025000 -0.250000 -0.000000
v -0.025000 -0.375000 -0.000000
v -0.000000 -0.025000 -0.437500
v 0.025000 -0.437500 0.000000
v -0.000000 -0.437500 0.025000
v -0.025000 -0.437500 -0.000000
v -0.000000 -0.437500 -0.025000
v -0.000000 -0.312500 -0.025000
v -0.000000 -0.187585 -0.024351
v -0.000000 -0.094482 -0.021852
v -0.000000 -0.026757 -0.093545
v -0.000000 -0.025000 -0.187500
v -0.000000 -0.025000 -0.312500
v 0.025000 -0.000000 -0.437500
v 0.025000 0.000000 -0.312500
v 0.025000 0.000000 -0.187500
v 0.025000 -0.001794 -0.082860
v 0.025000 -0.081845 0.001943
v 0.025000 -0.187499 0.000649
v 0.025000 -0.312500 0.000000
v -0.000000 0.025000 -0.437500
v -0.000000 0.025000 -0.312500
v -0.000000 0.025000 -0.187500
v -0.000000 0.023280 -0.072101
v -0.000000 -0.069092 0.025816
v -0.000000 -0.187412 0.025649
v -0.000000 -0.312500 0.025000
v -0.025000 -0.000000 -0.437500
v -0.025000 0.000000 -0.312500
v -0.025000 -0.000000 -0.187500
v -0.025000 -0.001794 -0.082860
v -0.025000 -0.081845 0.001943
v -0.025000 -0.187499 0.000649
v -0.025000 -0.312500 -0.000000
vt 0.937500 0.500000
vt 1.000000 0.500000
vt 1.000000 0.500000
vt 0.937500 0.500000
vt 1.000000 0.500000
vt 0.937500 0.500000
vt 1.000000 0.500000
vt 0.937500 0.500000
vt 0.500000 0.062500
vt 0.500000 0.125000
vt 0.500000 0.125000
vt 0.500000 0.062500
vt 0.500000 0.187500
vt 0.500000 0.250000
vt 0.500000 0.250000
vt 0.500000 0.187500
vt 0.500000 0.312500
vt 0.500000 0.375000
vt 0.500000 0.375000
vt 0.500000 0.312500
vt 0.500000 0.437500
vt 0.500000 0.500000
vt 0.500000 0.500000
vt 0.500000 0.437500
vt 0.562500 0.500000
vt 0.625000 0.500000
vt 0.625000 0.500000
vt 0.562500 0.500000
vt 0.687500 0.500000
vt 0.750000 0.500000
vt 0.750000 0.500000
vt 0.687500 0.500000
vt 0.812500 0.500000
vt 0.875000 0.500000
vt 0.875000 0.500000
vt 0.812500 0.500000
vt 0.500000 0.062500
vt 0.500000 0.125000
vt 0.500000 0.187500
vt 0.500000 0.250000
vt 0.500000 0.312500
vt 0.500000 0.375000
vt 0.500000 0.437500
vt 0.500000 0.500000
vt 0.562500 0.500000
vt 0.625000 0.500000
vt 0.687500 0.500000
vt 0.750000 0.500000
vt 0.812500 0.500000
vt 0.875000 0.500000
vt 0.500000 0.062500
vt 0.500000 0.125000
vt 0.500000 0.187500
vt 0.500000 0.250000
vt 0.500000 0.312500
vt 0.500000 0.375000
vt 0.500000 0.437500
vt 0.500000 0.500000
vt 0.562500 0.500000
vt 0.625000 0.500000
vt 0.687500 0.500000
vt 0.750000 0.500000
vt 0.812500 0.500000
vt 0.875000 0.500000
vt 0.500000 0.000000
vt 0.500000 0.000000
vt 0.500000 0.000000
vt 0.500000 0.000000
vn 0.0000 -1.0000 0.0000
vn 1.0000 0.0000 0.0000
vn 0.0000 1.0000 0.0000
vn -1.0000 0.0000 0.0000
vn 0.0000 0.0000 -1.0000
vn -1.0000 0.0000 -0.0023
vn 0.0000 0.0052 -1.0000
vn -1.0000 -0.0013 0.0017
vn -0.9999 0.0069 -0.0055
vn 0.0000 0.0167 -0.9998
vn 0.0000 0.0054 -1.0000
vn -0.9914 0.0257 0.1281
vn -0.9953 0.0698 0.0670
vn 0.0000 -0.7218 -0.6920
vn 0.0000 -0.2281 -0.9736
vn -0.9938 0.1070 0.0282
vn -1.0000 0.0026 -0.0019
vn 0.0000 -0.9998 -0.0180
vn 0.0000 -0.9684 -0.2495
vn -1.0000 0.0027 -0.0038
vn 0.0000 -0.9999 -0.0095
vn 0.0000 0.0000 1.0000
vn 0.0000 -0.0052 1.0000
vn 0.0000 -0.0080 0.9999
vn 0.0000 -0.0065 1.0000
vn 0.0000 0.3210 0.9471
vn 0.0000 0.7240 0.6898
vn 0.0000 0.9530 0.3029
vn 0.0000 0.9999 0.0150
vn 0.0000 1.0000 0.0018
vn 1.0000 0.0000 -0.0023
vn 1.0000 -0.0013 0.0017
vn 0.9999 0.0069 -0.0055
vn 0.9914 0.0257 0.1281
vn 0.9953 0.0698 0.0670
vn 0.9938 0.1070 0.0282
vn 1.0000 0.0026 -0.0019
vn 1.0000 0.0027 -0.0038
usemtl None
s 1
f 37/1/1 2/2/1 4/3/2 48/4/2
f 48/4/2 4/3/2 6/5/3 55/6/3
f 55/6/3 6/5/3 8/7/4 62/8/4
f 62/8/4 8/7/4 2/2/1 37/1/1
f 40/9/4 36/10/4 9/11/5 41/12/5
f 68/13/4 35/14/6 10/15/7 42/16/5
f 67/17/8 34/18/9 11/19/10 43/20/11
f 66/21/12 33/22/13 12/23/14 44/24/15
f 65/25/16 32/26/17 13/27/18 45/28/19
f 64/29/20 31/30/4 14/31/1 46/32/21
f 63/33/4 30/34/4 15/35/1 47/36/1
f 39/37/22 29/38/22 36/10/4 40/9/4
f 61/39/22 28/40/23 35/14/6 68/13/4
f 60/41/24 27/42/25 34/18/9 67/17/8
f 59/43/26 26/44/27 33/22/13 66/21/12
f 58/45/28 25/46/29 32/26/17 65/25/16
f 57/47/30 24/48/3 31/30/4 64/29/20
f 56/49/3 23/50/3 30/34/4 63/33/4
f 38/51/2 22/52/2 29/38/22 39/37/22
f 54/53/2 21/54/31 28/40/23 61/39/22
f 53/55/32 20/56/33 27/42/25 60/41/24
f 52/57/34 19/58/35 26/44/27 59/43/26
f 51/59/36 18/60/37 25/46/29 58/45/28
f 50/61/38 17/62/2 24/48/3 57/47/30
f 49/63/2 16/64/2 23/50/3 56/49/3
f 41/12/5 9/11/5 22/52/2 38/51/2
f 42/16/5 10/15/7 21/54/31 54/53/2
f 43/20/11 11/19/10 20/56/33 53/55/32
f 44/24/15 12/23/14 19/58/35 52/57/34
f 45/28/19 13/27/18 18/60/37 51/59/36
f 46/32/21 14/31/1 17/62/2 50/61/38
f 47/36/1 15/35/1 16/64/2 49/63/2
f 14/31/1 47/36/1 49/63/2 17/62/2
f 13/27/18 46/32/21 50/61/38 18/60/37
f 12/23/14 45/28/19 51/59/36 19/58/35
f 11/19/10 44/24/15 52/57/34 20/56/33
f 10/15/7 43/20/11 53/55/32 21/54/31
f 9/11/5 42/16/5 54/53/2 22/52/2
f 1/65/5 41/12/5 38/51/2 3/66/2
f 17/62/2 49/63/2 56/49/3 24/48/3
f 18/60/37 50/61/38 57/47/30 25/46/29
f 19/58/35 51/59/36 58/45/28 26/44/27
f 20/56/33 52/57/34 59/43/26 27/42/25
f 21/54/31 53/55/32 60/41/24 28/40/23
f 22/52/2 54/53/2 61/39/22 29/38/22
f 3/66/2 38/51/2 39/37/22 5/67/22
f 24/48/3 56/49/3 63/33/4 31/30/4
f 25/46/29 57/47/30 64/29/20 32/26/17
f 26/44/27 58/45/28 65/25/16 33/22/13
f 27/42/25 59/43/26 66/21/12 34/18/9
f 28/40/23 60/41/24 67/17/8 35/14/6
f 29/38/22 61/39/22 68/13/4 36/10/4
f 5/67/22 39/37/22 40/9/4 7/68/4
f 31/30/4 63/33/4 47/36/1 14/31/1
f 32/26/17 64/29/20 46/32/21 13/27/18
f 33/22/13 65/25/16 45/28/19 12/23/14
f 34/18/9 66/21/12 44/24/15 11/19/10
f 35/14/6 67/17/8 43/20/11 10/15/7
f 36/10/4 68/13/4 42/16/5 9/11/5
f 7/68/4 40/9/4 41/12/5 1/65/5
f 30/34/4 62/8/4 37/1/1 15/35/1
f 23/50/3 55/6/3 62/8/4 30/34/4
f 16/64/2 48/4/2 55/6/3 23/50/3
f 15/35/1 37/1/1 48/4/2 16/64/2
