# Blender v2.93.5 OBJ File: 'wall.blend'
# www.blender.org
mtllib wall.mtl
o Cube
v 0.805000 0.805000 -0.200000
v 0.805000 1.000000 0.000000
v 1.000000 0.805000 0.000000
v 0.805000 0.879623 -0.185157
v 0.805000 0.942886 -0.142886
v 0.879623 0.805000 -0.185157
v 0.881493 0.881493 -0.167242
v 0.877612 0.932970 -0.132970
v 0.917583 0.917583 -0.117583
v 0.879623 0.985157 0.000000
v 0.942886 0.942886 0.000000
v 0.805000 0.985157 -0.079623
v 0.881493 0.967242 -0.081493
v 0.932970 0.932970 -0.077612
v 0.985157 0.805000 -0.079623
v 0.942886 0.805000 -0.142886
v 0.985157 0.879623 0.000000
v 0.967242 0.881493 -0.081493
v 0.932970 0.877612 -0.132970
v 0.805000 -1.000000 0.000000
v 0.805000 -0.805000 -0.200000
v 1.000000 -0.805000 0.000000
v 0.805000 -0.985157 -0.079623
v 0.805000 -0.942886 -0.142886
v 0.879623 -0.985157 0.000000
v 0.881493 -0.967242 -0.081493
v 0.877612 -0.932970 -0.132970
v 0.917583 -0.917583 -0.117583
v 0.879623 -0.805000 -0.185157
v 0.942886 -0.805000 -0.142886
v 0.805000 -0.879623 -0.185157
v 0.881493 -0.881493 -0.167242
v 0.932970 -0.877612 -0.132970
v 0.985157 -0.879623 0.000000
v 0.942886 -0.942886 0.000000
v 0.985157 -0.805000 -0.079623
v 0.967242 -0.881493 -0.081493
v 0.932970 -0.932970 -0.077612
v 0.805000 0.805000 0.200000
v 0.985157 0.805000 0.079623
v 0.967242 0.881493 0.081493
v 0.932970 0.932970 0.077612
v 0.917583 0.917583 0.117583
v 0.805000 0.985157 0.079623
v 0.805000 0.942886 0.142886
v 0.881493 0.967242 0.081493
v 0.877612 0.932970 0.132970
v 0.879623 0.805000 0.185157
v 0.942886 0.805000 0.142886
v 0.805000 0.879623 0.185157
v 0.881493 0.881493 0.167242
v 0.932970 0.877612 0.132970
v 0.805000 -0.805000 0.200000
v 0.985157 -0.805000 0.079623
v 0.942886 -0.805000 0.142886
v 0.967242 -0.881493 0.081493
v 0.932970 -0.877612 0.132970
v 0.917583 -0.917583 0.117583
v 0.805000 -0.879623 0.185157
v 0.805000 -0.942886 0.142886
v 0.879623 -0.805000 0.185157
v 0.881493 -0.881493 0.167242
v 0.877612 -0.932970 0.132970
v 0.805000 -0.985157 0.079623
v 0.881493 -0.967242 0.081493
v 0.932970 -0.932970 0.077612
v -0.805000 0.805000 -0.200000
v -1.000000 0.805000 0.000000
v -0.805000 1.000000 0.000000
v -0.879623 0.805000 -0.185157
v -0.942886 0.805000 -0.142886
v -0.805000 0.879623 -0.185157
v -0.881493 0.881493 -0.167242
v -0.932970 0.877612 -0.132970
v -0.917583 0.917583 -0.117583
v -0.985157 0.879623 0.000000
v -0.942886 0.942886 0.000000
v -0.985157 0.805000 -0.079623
v -0.967242 0.881493 -0.081493
v -0.932970 0.932970 -0.077612
v -0.805000 0.985157 -0.079623
v -0.805000 0.942886 -0.142886
v -0.879623 0.985157 0.000000
v -0.881493 0.967242 -0.081493
v -0.877612 0.932970 -0.132970
v -1.000000 -0.805000 0.000000
v -0.805000 -0.805000 -0.200000
v -0.805000 -1.000000 0.000000
v -0.985157 -0.805000 -0.079623
v -0.942886 -0.805000 -0.142886
v -0.985157 -0.879623 0.000000
v -0.967242 -0.881493 -0.081493
v -0.932970 -0.877612 -0.132970
v -0.917583 -0.917583 -0.117583
v -0.805000 -0.879623 -0.185157
v -0.805000 -0.942886 -0.142886
v -0.879623 -0.805000 -0.185157
v -0.881493 -0.881493 -0.167242
v -0.877612 -0.932970 -0.132970
v -0.879623 -0.985157 0.000000
v -0.942886 -0.942886 0.000000
v -0.805000 -0.985157 -0.079623
v -0.881493 -0.967242 -0.081493
v -0.932970 -0.932970 -0.077612
v -0.805000 0.805000 0.200000
v -0.985157 0.805000 0.079623
v -0.942886 0.805000 0.142886
v -0.967242 0.881493 0.081493
v -0.932970 0.877612 0.132970
v -0.917583 0.917583 0.117583
v -0.805000 0.879623 0.185157
v -0.805000 0.942886 0.142886
v -0.879623 0.805000 0.185157
v -0.881493 0.881493 0.167242
v -0.877612 0.932970 0.132970
v -0.805000 0.985157 0.079623
v -0.881493 0.967242 0.081493
v -0.932970 0.932970 0.077612
v -0.805000 -0.805000 0.200000
v -0.805000 -0.985157 0.079623
v -0.805000 -0.942886 0.142886
v -0.881493 -0.967242 0.081493
v -0.877612 -0.932970 0.132970
v -0.917583 -0.917583 0.117583
v -0.879623 -0.805000 0.185157
v -0.942886 -0.805000 0.142886
v -0.805000 -0.879623 0.185157
v -0.881493 -0.881493 0.167242
v -0.932970 -0.877612 0.132970
v -0.985157 -0.805000 0.079623
v -0.967242 -0.881493 0.081493
v -0.932970 -0.932970 0.077612
vt 0.399375 0.774375
vt 0.600625 0.774375
vt 0.600625 0.975625
vt 0.399375 0.975625
vt 0.600625 0.475625
vt 0.609953 0.475625
vt 0.610187 0.485187
vt 0.600625 0.484953
vt 0.625000 0.475625
vt 0.625000 0.484702
vt 0.609702 0.500000
vt 0.600625 0.500000
vt 0.621566 0.513736
vt 0.649375 0.621875
vt 0.640047 0.621875
vt 0.639813 0.574067
vt 0.649375 0.575235
vt 0.625000 0.621875
vt 0.625000 0.576492
vt 0.640298 0.500000
vt 0.649375 0.500000
vt 0.600625 0.621875
vt 0.600625 0.575235
vt 0.610187 0.574067
vt 0.609953 0.621875
vt 0.350625 0.621875
vt 0.350625 0.575235
vt 0.360187 0.574067
vt 0.359953 0.621875
vt 0.350625 0.500000
vt 0.359702 0.500000
vt 0.375000 0.576492
vt 0.375000 0.621875
vt 0.375000 0.517170
vt 0.399375 0.475625
vt 0.399375 0.484953
vt 0.389813 0.485187
vt 0.390047 0.475625
vt 0.399375 0.500000
vt 0.390298 0.500000
vt 0.375000 0.484702
vt 0.375000 0.475625
vt 0.399375 0.621875
vt 0.390047 0.621875
vt 0.389813 0.574067
vt 0.399375 0.575235
vt 0.600625 0.628125
vt 0.609953 0.628125
vt 0.610187 0.675933
vt 0.600625 0.674765
vt 0.625000 0.628125
vt 0.625000 0.673508
vt 0.609702 0.750000
vt 0.600625 0.750000
vt 0.625000 0.732830
vt 0.649375 0.628125
vt 0.649375 0.674765
vt 0.639813 0.675933
vt 0.640047 0.628125
vt 0.649375 0.750000
vt 0.640298 0.750000
vt 0.600625 0.765047
vt 0.610187 0.764813
vt 0.609953 0.774375
vt 0.625000 0.765298
vt 0.625000 0.774375
vt 0.399375 0.628125
vt 0.399375 0.674765
vt 0.389813 0.675933
vt 0.390047 0.628125
vt 0.399375 0.750000
vt 0.390298 0.750000
vt 0.375000 0.673508
vt 0.375000 0.628125
vt 0.378434 0.736264
vt 0.390047 0.774375
vt 0.389813 0.764813
vt 0.399375 0.765047
vt 0.375000 0.774375
vt 0.375000 0.765298
vt 0.350625 0.628125
vt 0.359953 0.628125
vt 0.360187 0.675933
vt 0.350625 0.674765
vt 0.359702 0.750000
vt 0.350625 0.750000
vt 0.600625 0.274375
vt 0.600625 0.265047
vt 0.610187 0.264813
vt 0.609953 0.274375
vt 0.600625 0.250000
vt 0.609702 0.250000
vt 0.625000 0.265298
vt 0.625000 0.274375
vt 0.614698 0.250000
vt 0.600625 0.128125
vt 0.609953 0.128125
vt 0.610187 0.175933
vt 0.600625 0.174765
vt 0.625000 0.128125
vt 0.625000 0.173508
vt 0.625000 0.198490
vt 0.850625 0.621875
vt 0.850625 0.575235
vt 0.860187 0.574067
vt 0.859953 0.621875
vt 0.850625 0.500000
vt 0.859702 0.500000
vt 0.875000 0.576492
vt 0.875000 0.621875
vt 0.864698 0.500000
vt 0.399375 0.128125
vt 0.399375 0.174765
vt 0.389813 0.175933
vt 0.390047 0.128125
vt 0.399375 0.250000
vt 0.390298 0.250000
vt 0.375000 0.173508
vt 0.375000 0.128125
vt 0.385302 0.250000
vt 0.399375 0.274375
vt 0.390047 0.274375
vt 0.389813 0.264813
vt 0.399375 0.265047
vt 0.375000 0.274375
vt 0.375000 0.265298
vt 0.375000 0.260302
vt 0.149375 0.621875
vt 0.140047 0.621875
vt 0.139813 0.574067
vt 0.149375 0.575235
vt 0.125000 0.621875
vt 0.125000 0.576492
vt 0.140298 0.500000
vt 0.149375 0.500000
vt 0.125000 0.551510
vt 0.600625 0.121875
vt 0.600625 0.075235
vt 0.610187 0.074067
vt 0.609953 0.121875
vt 0.600625 0.000000
vt 0.609702 0.000000
vt 0.625000 0.076492
vt 0.625000 0.121875
vt 0.614698 0.000000
vt 0.609953 0.975625
vt 0.610187 0.985187
vt 0.600625 0.984953
vt 0.625000 0.975625
vt 0.625000 0.984702
vt 0.609702 1.000000
vt 0.600625 1.000000
vt 0.625000 0.989698
vt 0.850625 0.628125
vt 0.859953 0.628125
vt 0.860187 0.675933
vt 0.850625 0.674765
vt 0.875000 0.628125
vt 0.875000 0.673508
vt 0.859702 0.750000
vt 0.850625 0.750000
vt 0.875000 0.698490
vt 0.149375 0.628125
vt 0.149375 0.674765
vt 0.139813 0.675933
vt 0.140047 0.628125
vt 0.149375 0.750000
vt 0.140298 0.750000
vt 0.125000 0.673508
vt 0.125000 0.628125
vt 0.135302 0.750000
vt 0.399375 0.984953
vt 0.389813 0.985187
vt 0.390047 0.975625
vt 0.399375 1.000000
vt 0.390298 1.000000
vt 0.375000 0.984702
vt 0.375000 0.975625
vt 0.385302 1.000000
vt 0.399375 0.121875
vt 0.390047 0.121875
vt 0.389813 0.074067
vt 0.399375 0.075235
vt 0.375000 0.121875
vt 0.375000 0.076492
vt 0.390298 0.000000
vt 0.399375 0.000000
vt 0.375000 0.051510
vn 0.1004 -0.1004 0.9899
vn 0.1004 0.1004 0.9899
vn -0.1004 0.1004 0.9899
vn -0.1004 -0.1004 0.9899
vn 0.1004 0.1004 -0.9899
vn 0.0981 0.3792 -0.9201
vn 0.3673 0.3673 -0.8545
vn 0.3792 0.0981 -0.9201
vn 0.0919 0.7041 -0.7041
vn 0.3347 0.6663 -0.6663
vn 0.6663 0.3347 -0.6663
vn 0.7041 0.0919 -0.7041
vn 0.5773 0.5773 -0.5773
vn 0.1040 0.9946 0.0000
vn 0.3800 0.9250 0.0000
vn 0.3677 0.8566 -0.3618
vn 0.0984 0.9224 -0.3734
vn 0.7071 0.7071 0.0000
vn 0.6677 0.6677 -0.3290
vn 0.9946 0.1040 0.0000
vn 0.9224 0.0984 -0.3734
vn 0.8566 0.3677 -0.3618
vn 0.9250 0.3800 0.0000
vn 0.1040 -0.9946 0.0000
vn 0.0984 -0.9224 -0.3734
vn 0.3677 -0.8566 -0.3618
vn 0.3800 -0.9250 0.0000
vn 0.0919 -0.7041 -0.7041
vn 0.3347 -0.6663 -0.6663
vn 0.6677 -0.6677 -0.3290
vn 0.7071 -0.7071 0.0000
vn 0.5773 -0.5773 -0.5773
vn 0.1004 -0.1004 -0.9899
vn 0.3792 -0.0981 -0.9201
vn 0.3673 -0.3673 -0.8545
vn 0.0981 -0.3792 -0.9201
vn 0.7041 -0.0919 -0.7041
vn 0.6663 -0.3347 -0.6663
vn 0.9946 -0.1040 0.0000
vn 0.9250 -0.3800 0.0000
vn 0.8566 -0.3677 -0.3618
vn 0.9224 -0.0984 -0.3734
vn 0.8566 0.3677 0.3618
vn 0.9224 0.0984 0.3734
vn 0.6677 0.6677 0.3290
vn 0.6663 0.3347 0.6663
vn 0.7041 0.0919 0.7041
vn 0.5773 0.5773 0.5773
vn 0.0984 0.9224 0.3734
vn 0.3677 0.8566 0.3618
vn 0.0919 0.7041 0.7041
vn 0.3347 0.6663 0.6663
vn 0.3792 0.0981 0.9201
vn 0.3673 0.3673 0.8545
vn 0.0981 0.3792 0.9201
vn 0.9224 -0.0984 0.3734
vn 0.8566 -0.3677 0.3618
vn 0.7041 -0.0919 0.7041
vn 0.6663 -0.3347 0.6663
vn 0.6677 -0.6677 0.3290
vn 0.5773 -0.5773 0.5773
vn 0.0981 -0.3792 0.9201
vn 0.3673 -0.3673 0.8545
vn 0.3792 -0.0981 0.9201
vn 0.0919 -0.7041 0.7041
vn 0.3347 -0.6663 0.6663
vn 0.3677 -0.8566 0.3618
vn 0.0984 -0.9224 0.3734
vn -0.1004 0.1004 -0.9899
vn -0.3792 0.0981 -0.9201
vn -0.3673 0.3673 -0.8545
vn -0.0981 0.3792 -0.9201
vn -0.7041 0.0919 -0.7041
vn -0.6663 0.3347 -0.6663
vn -0.3347 0.6663 -0.6663
vn -0.0919 0.7041 -0.7041
vn -0.5773 0.5773 -0.5773
vn -0.9946 0.1040 0.0000
vn -0.9250 0.3800 0.0000
vn -0.8566 0.3677 -0.3618
vn -0.9224 0.0984 -0.3734
vn -0.7071 0.7071 0.0000
vn -0.6677 0.6677 -0.3290
vn -0.1040 0.9946 0.0000
vn -0.0984 0.9224 -0.3734
vn -0.3677 0.8566 -0.3618
vn -0.3800 0.9250 0.0000
vn -0.9946 -0.1040 0.0000
vn -0.9224 -0.0984 -0.3734
vn -0.8566 -0.3677 -0.3618
vn -0.9250 -0.3800 0.0000
vn -0.7041 -0.0919 -0.7041
vn -0.6663 -0.3347 -0.6663
vn -0.6677 -0.6677 -0.3290
vn -0.7071 -0.7071 0.0000
vn -0.5773 -0.5773 -0.5773
vn -0.1004 -0.1004 -0.9899
vn -0.0981 -0.3792 -0.9201
vn -0.3673 -0.3673 -0.8545
vn -0.3792 -0.0981 -0.9201
vn -0.0919 -0.7041 -0.7041
vn -0.3347 -0.6663 -0.6663
vn -0.1040 -0.9946 0.0000
vn -0.3800 -0.9250 0.0000
vn -0.3677 -0.8566 -0.3618
vn -0.0984 -0.9224 -0.3734
vn -0.9224 0.0984 0.3734
vn -0.8566 0.3677 0.3618
vn -0.7041 0.0919 0.7041
vn -0.6663 0.3347 0.6663
vn -0.6677 0.6677 0.3290
vn -0.5773 0.5773 0.5773
vn -0.0981 0.3792 0.9201
vn -0.3673 0.3673 0.8545
vn -0.3792 0.0981 0.9201
vn -0.0919 0.7041 0.7041
vn -0.3347 0.6663 0.6663
vn -0.3677 0.8566 0.3618
vn -0.0984 0.9224 0.3734
vn -0.0984 -0.9224 0.3734
vn -0.3677 -0.8566 0.3618
vn -0.0919 -0.7041 0.7041
vn -0.3347 -0.6663 0.6663
vn -0.6677 -0.6677 0.3290
vn -0.5773 -0.5773 0.5773
vn -0.3792 -0.0981 0.9201
vn -0.3673 -0.3673 0.8545
vn -0.0981 -0.3792 0.9201
vn -0.7041 -0.0919 0.7041
vn -0.6663 -0.3347 0.6663
vn -0.8566 -0.3677 0.3618
vn -0.9224 -0.0984 0.3734
usemtl Material
s 1
f 53/1/1 39/2/2 105/3/3 119/4/4
f 1/5/5 4/6/6 7/7/7 6/8/8
f 4/6/6 5/9/9 8/10/10 7/7/7
f 6/8/8 7/7/7 19/11/11 16/12/12
f 7/7/7 8/10/10 9/13/13 19/11/11
f 2/14/14 10/15/15 13/16/16 12/17/17
f 10/15/15 11/18/18 14/19/19 13/16/16
f 12/17/17 13/16/16 8/20/10 5/21/9
f 13/16/16 14/19/19 9/13/13 8/20/10
f 3/22/20 15/23/21 18/24/22 17/25/23
f 15/23/21 16/12/12 19/11/11 18/24/22
f 17/25/23 18/24/22 14/19/19 11/18/18
f 18/24/22 19/11/11 9/13/13 14/19/19
f 20/26/24 23/27/25 26/28/26 25/29/27
f 23/27/25 24/30/28 27/31/29 26/28/26
f 25/29/27 26/28/26 38/32/30 35/33/31
f 26/28/26 27/31/29 28/34/32 38/32/30
f 21/35/33 29/36/34 32/37/35 31/38/36
f 29/36/34 30/39/37 33/40/38 32/37/35
f 31/38/36 32/37/35 27/41/29 24/42/28
f 32/37/35 33/40/38 28/34/32 27/41/29
f 22/43/39 34/44/40 37/45/41 36/46/42
f 34/44/40 35/33/31 38/32/30 37/45/41
f 36/46/42 37/45/41 33/40/38 30/39/37
f 37/45/41 38/32/30 28/34/32 33/40/38
f 3/47/20 17/48/23 41/49/43 40/50/44
f 17/48/23 11/51/18 42/52/45 41/49/43
f 40/50/44 41/49/43 52/53/46 49/54/47
f 41/49/43 42/52/45 43/55/48 52/53/46
f 2/56/14 44/57/49 46/58/50 10/59/15
f 44/57/49 45/60/51 47/61/52 46/58/50
f 10/59/15 46/58/50 42/52/45 11/51/18
f 46/58/50 47/61/52 43/55/48 42/52/45
f 39/2/2 48/62/53 51/63/54 50/64/55
f 48/62/53 49/54/47 52/53/46 51/63/54
f 50/64/55 51/63/54 47/65/52 45/66/51
f 51/63/54 52/53/46 43/55/48 47/65/52
f 22/67/39 54/68/56 56/69/57 34/70/40
f 54/68/56 55/71/58 57/72/59 56/69/57
f 34/70/40 56/69/57 66/73/60 35/74/31
f 56/69/57 57/72/59 58/75/61 66/73/60
f 53/1/1 59/76/62 62/77/63 61/78/64
f 59/76/62 60/79/65 63/80/66 62/77/63
f 61/78/64 62/77/63 57/72/59 55/71/58
f 62/77/63 63/80/66 58/75/61 57/72/59
f 20/81/24 25/82/27 65/83/67 64/84/68
f 25/82/27 35/74/31 66/73/60 65/83/67
f 64/84/68 65/83/67 63/85/66 60/86/65
f 65/83/67 66/73/60 58/75/61 63/85/66
f 67/87/69 70/88/70 73/89/71 72/90/72
f 70/88/70 71/91/73 74/92/74 73/89/71
f 72/90/72 73/89/71 85/93/75 82/94/76
f 73/89/71 74/92/74 75/95/77 85/93/75
f 68/96/78 76/97/79 79/98/80 78/99/81
f 76/97/79 77/100/82 80/101/83 79/98/80
f 78/99/81 79/98/80 74/92/74 71/91/73
f 79/98/80 80/101/83 75/102/77 74/92/74
f 69/103/84 81/104/85 84/105/86 83/106/87
f 81/104/85 82/107/76 85/108/75 84/105/86
f 83/106/87 84/105/86 80/109/83 77/110/82
f 84/105/86 85/108/75 75/111/77 80/109/83
f 86/112/88 89/113/89 92/114/90 91/115/91
f 89/113/89 90/116/92 93/117/93 92/114/90
f 91/115/91 92/114/90 104/118/94 101/119/95
f 92/114/90 93/117/93 94/120/96 104/118/94
f 87/121/97 95/122/98 98/123/99 97/124/100
f 95/122/98 96/125/101 99/126/102 98/123/99
f 97/124/100 98/123/99 93/117/93 90/116/92
f 98/123/99 99/126/102 94/127/96 93/117/93
f 88/128/103 100/129/104 103/130/105 102/131/106
f 100/129/104 101/132/95 104/133/94 103/130/105
f 102/131/106 103/130/105 99/134/102 96/135/101
f 103/130/105 104/133/94 94/136/96 99/134/102
f 68/137/78 106/138/107 108/139/108 76/140/79
f 106/138/107 107/141/109 109/142/110 108/139/108
f 76/140/79 108/139/108 118/143/111 77/144/82
f 108/139/108 109/142/110 110/145/112 118/143/111
f 105/3/3 111/146/113 114/147/114 113/148/115
f 111/146/113 112/149/116 115/150/117 114/147/114
f 113/148/115 114/147/114 109/151/110 107/152/109
f 114/147/114 115/150/117 110/153/112 109/151/110
f 69/154/84 83/155/87 117/156/118 116/157/119
f 83/155/87 77/158/82 118/159/111 117/156/118
f 116/157/119 117/156/118 115/160/117 112/161/116
f 117/156/118 118/159/111 110/162/112 115/160/117
f 88/163/103 120/164/120 122/165/121 100/166/104
f 120/164/120 121/167/122 123/168/123 122/165/121
f 100/166/104 122/165/121 132/169/124 101/170/95
f 122/165/121 123/168/123 124/171/125 132/169/124
f 119/4/4 125/172/126 128/173/127 127/174/128
f 125/172/126 126/175/129 129/176/130 128/173/127
f 127/174/128 128/173/127 123/177/123 121/178/122
f 128/173/127 129/176/130 124/179/125 123/177/123
f 86/180/88 91/181/91 131/182/131 130/183/132
f 91/181/91 101/184/95 132/185/124 131/182/131
f 130/183/132 131/182/131 129/186/130 126/187/129
f 131/182/131 132/185/124 124/188/125 129/186/130
f 20/26/24 88/128/103 102/131/106 23/27/25
f 23/27/25 102/131/106 96/135/101 24/30/28
f 24/42/28 96/125/101 95/122/98 31/38/36
f 31/38/36 95/122/98 87/121/97 21/35/33
f 3/22/20 22/43/39 36/46/42 15/23/21
f 15/23/21 36/46/42 30/39/37 16/12/12
f 16/12/12 30/39/37 29/36/34 6/8/8
f 6/8/8 29/36/34 21/35/33 1/5/5
f 119/4/4 105/3/3 113/148/115 125/172/126
f 125/172/126 113/148/115 107/152/109 126/175/129
f 126/187/129 107/141/109 106/138/107 130/183/132
f 130/183/132 106/138/107 68/137/78 86/180/88
f 39/2/2 53/1/1 61/78/64 48/62/53
f 48/62/53 61/78/64 55/71/58 49/54/47
f 49/54/47 55/71/58 54/68/56 40/50/44
f 40/50/44 54/68/56 22/67/39 3/47/20
f 67/87/69 87/121/97 97/124/100 70/88/70
f 70/88/70 97/124/100 90/116/92 71/91/73
f 71/91/73 90/116/92 89/113/89 78/99/81
f 78/99/81 89/113/89 86/112/88 68/96/78
f 2/56/14 69/154/84 116/157/119 44/57/49
f 44/57/49 116/157/119 112/161/116 45/60/51
f 45/66/51 112/149/116 111/146/113 50/64/55
f 50/64/55 111/146/113 105/3/3 39/2/2
f 88/163/103 20/81/24 64/84/68 120/164/120
f 120/164/120 64/84/68 60/86/65 121/167/122
f 121/178/122 60/79/65 59/76/62 127/174/128
f 127/174/128 59/76/62 53/1/1 119/4/4
f 69/103/84 2/14/14 12/17/17 81/104/85
f 81/104/85 12/17/17 5/21/9 82/107/76
f 82/94/76 5/9/9 4/6/6 72/90/72
f 72/90/72 4/6/6 1/5/5 67/87/69
f 87/121/97 67/87/69 1/5/5 21/35/33
