# Blender v2.93.5 OBJ File: 'widget-piece.blend'
# www.blender.org
mtllib widget-piece.mtl
o Cylinder
v 0.000000 0.000000 -0.050000
v 0.000000 1.000000 -0.050000
v 0.050000 0.000000 0.000000
v 0.050000 1.000000 0.000000
v -0.000000 0.000000 0.050000
v -0.000000 1.000000 0.050000
v -0.050000 0.000000 -0.000000
v -0.050000 1.000000 -0.000000
vt 1.000000 0.500000
vt 1.000000 1.000000
vt 0.750000 1.000000
vt 0.750000 0.500000
vt 0.500000 1.000000
vt 0.500000 0.500000
vt 0.490000 0.250000
vt 0.250000 0.490000
vt 0.010000 0.250000
vt 0.250000 0.010000
vt 0.250000 1.000000
vt 0.250000 0.500000
vt 0.000000 1.000000
vt 0.000000 0.500000
vt 0.750000 0.490000
vt 0.990000 0.250000
vt 0.750000 0.010000
vt 0.510000 0.250000
vn 0.0000 -0.5773 -0.8165
vn 0.0000 0.5773 -0.8165
vn 0.8165 0.5773 0.0000
vn 0.8165 -0.5773 0.0000
vn 0.0000 0.5773 0.8165
vn 0.0000 -0.5773 0.8165
vn -0.8165 0.5773 0.0000
vn -0.8165 -0.5773 0.0000
usemtl None
s 1
f 1/1/1 2/2/2 4/3/3 3/4/4
f 3/4/4 4/3/3 6/5/5 5/6/6
f 4/7/3 2/8/2 8/9/7 6/10/5
f 5/6/6 6/5/5 8/11/7 7/12/8
f 7/12/8 8/11/7 2/13/2 1/14/1
f 1/15/1 3/16/4 5/17/6 7/18/8
o Sphere
v 0.000000 1.141421 -0.141421
v 0.000000 1.076537 -0.184776
v 0.000000 0.923463 -0.184776
v 0.000000 0.815224 -0.076537
v 0.029289 1.184776 -0.070711
v 0.054120 1.141421 -0.130656
v 0.070711 1.076537 -0.170711
v 0.076537 1.000000 -0.184776
v 0.070711 0.923463 -0.170711
v 0.054120 0.858579 -0.130656
v 0.029289 0.815224 -0.070711
v 0.054120 1.184776 -0.054120
v 0.100000 1.141421 -0.100000
v 0.130656 1.076537 -0.130656
v 0.141421 1.000000 -0.141421
v 0.130656 0.923463 -0.130656
v 0.100000 0.858579 -0.100000
v 0.054120 0.815224 -0.054120
v 0.070711 1.184776 -0.029289
v 0.130656 1.141421 -0.054120
v 0.170711 1.076537 -0.070711
v 0.184776 1.000000 -0.076537
v 0.170711 0.923463 -0.070711
v 0.130656 0.858579 -0.054120
v 0.070711 0.815224 -0.029289
v 0.076537 1.184776 0.000000
v 0.141421 1.141421 0.000000
v 0.184776 1.076537 0.000000
v 0.200000 1.000000 0.000000
v 0.184776 0.923463 0.000000
v 0.141421 0.858579 0.000000
v 0.076537 0.815224 0.000000
v 0.070711 1.184776 0.029289
v 0.130656 1.141421 0.054120
v 0.170711 1.076537 0.070711
v 0.184776 1.000000 0.076537
v 0.170711 0.923463 0.070711
v 0.130656 0.858579 0.054120
v 0.070711 0.815224 0.029289
v 0.054120 1.184776 0.054120
v 0.100000 1.141421 0.100000
v 0.130656 1.076537 0.130656
v 0.141421 1.000000 0.141421
v 0.130656 0.923463 0.130656
v 0.100000 0.858579 0.100000
v 0.054120 0.815224 0.054120
v 0.029289 1.184776 0.070711
v 0.054120 1.141421 0.130656
v 0.070711 1.076537 0.170711
v 0.076537 1.000000 0.184776
v 0.070711 0.923463 0.170711
v 0.054120 0.858579 0.130656
v 0.029289 0.815224 0.070711
v -0.000000 1.200000 0.000000
v -0.000000 1.184776 0.076537
v -0.000000 1.141421 0.141421
v -0.000000 1.076537 0.184776
v -0.000000 1.000000 0.200000
v -0.000000 0.923463 0.184776
v -0.000000 0.858579 0.141421
v -0.000000 0.815224 0.076537
v -0.029289 1.184776 0.070711
v -0.054120 1.141421 0.130656
v -0.070711 1.076537 0.170711
v -0.076537 1.000000 0.184776
v -0.070711 0.923463 0.170711
v -0.054120 0.858579 0.130656
v -0.029289 0.815224 0.070711
v -0.054120 1.184776 0.054120
v -0.100000 1.141421 0.100000
v -0.130656 1.076537 0.130656
v -0.141421 1.000000 0.141421
v -0.130656 0.923463 0.130656
v -0.100000 0.858579 0.100000
v -0.054120 0.815224 0.054120
v 0.000000 0.800000 0.000000
v -0.070711 1.184776 0.029289
v -0.130656 1.141421 0.054120
v -0.170711 1.076537 0.070711
v -0.184776 1.000000 0.076537
v -0.170711 0.923463 0.070711
v -0.130656 0.858579 0.054120
v -0.070711 0.815224 0.029289
v -0.076537 1.184776 -0.000000
v -0.141421 1.141421 -0.000000
v -0.184776 1.076537 -0.000000
v -0.200000 1.000000 -0.000000
v -0.184776 0.923463 -0.000000
v -0.141421 0.858579 -0.000000
v -0.076537 0.815224 -0.000000
v -0.070711 1.184776 -0.029289
v -0.130656 1.141421 -0.054120
v -0.170711 1.076537 -0.070711
v -0.184776 1.000000 -0.076537
v -0.170711 0.923463 -0.070711
v -0.130656 0.858579 -0.054120
v -0.070711 0.815224 -0.029289
v -0.054120 1.184776 -0.054120
v -0.100000 1.141421 -0.100000
v -0.130656 1.076537 -0.130656
v -0.141421 1.000000 -0.141421
v -0.130656 0.923463 -0.130656
v -0.100000 0.858579 -0.100000
v -0.054120 0.815224 -0.054120
v -0.029289 1.184776 -0.070711
v -0.054120 1.141421 -0.130656
v -0.070711 1.076537 -0.170711
v -0.076537 1.000000 -0.184776
v -0.070711 0.923463 -0.170711
v -0.054120 0.858579 -0.130656
v -0.029289 0.815224 -0.070711
v 0.000000 1.184776 -0.076537
v 0.000000 1.000000 -0.200000
v 0.000000 0.858579 -0.141421
vt 0.750000 0.125000
vt 0.750000 0.250000
vt 0.687500 0.250000
vt 0.687500 0.125000
vt 0.750000 0.375000
vt 0.750000 0.500000
vt 0.687500 0.500000
vt 0.687500 0.375000
vt 0.750000 0.625000
vt 0.750000 0.750000
vt 0.687500 0.750000
vt 0.687500 0.625000
vt 0.750000 0.875000
vt 0.718750 1.000000
vt 0.687500 0.875000
vt 0.718750 0.000000
vt 0.656250 0.000000
vt 0.625000 0.125000
vt 0.625000 0.375000
vt 0.625000 0.250000
vt 0.625000 0.625000
vt 0.625000 0.500000
vt 0.625000 0.875000
vt 0.625000 0.750000
vt 0.656250 1.000000
vt 0.562500 0.625000
vt 0.562500 0.500000
vt 0.562500 0.875000
vt 0.562500 0.750000
vt 0.562500 0.250000
vt 0.562500 0.125000
vt 0.562500 0.375000
vt 0.593750 1.000000
vt 0.593750 0.000000
vt 0.500000 0.250000
vt 0.500000 0.125000
vt 0.500000 0.500000
vt 0.500000 0.375000
vt 0.500000 0.750000
vt 0.500000 0.625000
vt 0.531250 1.000000
vt 0.500000 0.875000
vt 0.531250 0.000000
vt 0.437500 0.750000
vt 0.437500 0.625000
vt 0.468750 1.000000
vt 0.437500 0.875000
vt 0.468750 0.000000
vt 0.437500 0.125000
vt 0.437500 0.375000
vt 0.437500 0.250000
vt 0.437500 0.500000
vt 0.406250 0.000000
vt 0.375000 0.125000
vt 0.375000 0.375000
vt 0.375000 0.250000
vt 0.375000 0.625000
vt 0.375000 0.500000
vt 0.375000 0.875000
vt 0.375000 0.750000
vt 0.406250 1.000000
vt 0.312500 0.875000
vt 0.312500 0.750000
vt 0.312500 0.250000
vt 0.312500 0.125000
vt 0.312500 0.500000
vt 0.312500 0.375000
vt 0.312500 0.625000
vt 0.343750 1.000000
vt 0.343750 0.000000
vt 0.250000 0.250000
vt 0.250000 0.125000
vt 0.250000 0.500000
vt 0.250000 0.375000
vt 0.250000 0.750000
vt 0.250000 0.625000
vt 0.281250 1.000000
vt 0.250000 0.875000
vt 0.281250 0.000000
vt 0.218750 1.000000
vt 0.187500 0.875000
vt 0.218750 0.000000
vt 0.187500 0.125000
vt 0.187500 0.375000
vt 0.187500 0.250000
vt 0.187500 0.625000
vt 0.187500 0.500000
vt 0.187500 0.750000
vt 0.125000 0.375000
vt 0.125000 0.250000
vt 0.125000 0.625000
vt 0.125000 0.500000
vt 0.125000 0.875000
vt 0.125000 0.750000
vt 0.125000 0.125000
vt 0.156250 1.000000
vt 0.156250 0.000000
vt 0.062500 0.250000
vt 0.062500 0.125000
vt 0.062500 0.500000
vt 0.062500 0.375000
vt 0.062500 0.750000
vt 0.062500 0.625000
vt 0.093750 1.000000
vt 0.062500 0.875000
vt 0.093750 0.000000
vt 0.000000 0.500000
vt 0.000000 0.375000
vt 0.000000 0.750000
vt 0.000000 0.625000
vt 0.031250 1.000000
vt 0.000000 0.875000
vt 0.031250 0.000000
vt 0.000000 0.125000
vt 0.000000 0.250000
vt 0.968750 0.000000
vt 1.000000 0.125000
vt 0.937500 0.125000
vt 1.000000 0.250000
vt 1.000000 0.375000
vt 0.937500 0.375000
vt 0.937500 0.250000
vt 1.000000 0.500000
vt 1.000000 0.625000
vt 0.937500 0.625000
vt 0.937500 0.500000
vt 1.000000 0.750000
vt 1.000000 0.875000
vt 0.937500 0.875000
vt 0.937500 0.750000
vt 0.968750 1.000000
vt 0.875000 0.625000
vt 0.875000 0.500000
vt 0.875000 0.875000
vt 0.875000 0.750000
vt 0.875000 0.250000
vt 0.875000 0.125000
vt 0.875000 0.375000
vt 0.906250 1.000000
vt 0.906250 0.000000
vt 0.812500 0.250000
vt 0.812500 0.125000
vt 0.812500 0.500000
vt 0.812500 0.375000
vt 0.812500 0.750000
vt 0.812500 0.625000
vt 0.843750 1.000000
vt 0.812500 0.875000
vt 0.843750 0.000000
vt 0.781250 1.000000
vt 0.781250 0.000000
vn 0.0000 -0.9152 -0.4031
vn 0.0000 -0.6952 -0.7188
vn 0.2751 -0.6952 -0.6641
vn 0.1542 -0.9152 -0.3724
vn 0.0000 -0.3743 -0.9273
vn 0.0000 0.0000 -1.0000
vn 0.3827 0.0000 -0.9239
vn 0.3548 -0.3743 -0.8567
vn 0.0000 0.3743 -0.9273
vn 0.0000 0.6952 -0.7188
vn 0.2751 0.6952 -0.6641
vn 0.3548 0.3743 -0.8567
vn 0.0000 0.9152 -0.4031
vn 0.0000 1.0000 0.0000
vn 0.1542 0.9151 -0.3724
vn 0.0000 -1.0000 0.0000
vn 0.2850 -0.9152 -0.2850
vn 0.6557 -0.3743 -0.6557
vn 0.5083 -0.6952 -0.5083
vn 0.6557 0.3743 -0.6557
vn 0.7071 0.0000 -0.7071
vn 0.2850 0.9152 -0.2850
vn 0.5083 0.6952 -0.5083
vn 0.8567 0.3743 -0.3548
vn 0.9239 0.0000 -0.3827
vn 0.3724 0.9152 -0.1542
vn 0.6641 0.6952 -0.2751
vn 0.6641 -0.6952 -0.2751
vn 0.3724 -0.9152 -0.1542
vn 0.8567 -0.3743 -0.3548
vn 0.7188 -0.6952 0.0000
vn 0.4031 -0.9152 0.0000
vn 1.0000 0.0000 0.0000
vn 0.9273 -0.3743 0.0000
vn 0.7188 0.6952 0.0000
vn 0.9273 0.3743 0.0000
vn 0.4031 0.9152 0.0000
vn 0.6641 0.6952 0.2751
vn 0.8567 0.3743 0.3548
vn 0.3724 0.9152 0.1542
vn 0.3724 -0.9152 0.1542
vn 0.8567 -0.3743 0.3548
vn 0.6641 -0.6952 0.2751
vn 0.9239 0.0000 0.3827
vn 0.2850 -0.9152 0.2850
vn 0.6557 -0.3743 0.6557
vn 0.5083 -0.6952 0.5083
vn 0.6557 0.3743 0.6557
vn 0.7071 0.0000 0.7071
vn 0.2850 0.9152 0.2850
vn 0.5083 0.6952 0.5083
vn 0.1542 0.9152 0.3724
vn 0.2751 0.6952 0.6641
vn 0.2751 -0.6952 0.6641
vn 0.1542 -0.9152 0.3724
vn 0.3827 0.0000 0.9239
vn 0.3548 -0.3743 0.8567
vn 0.3548 0.3743 0.8567
vn 0.0000 -0.6952 0.7188
vn 0.0000 -0.9152 0.4031
vn 0.0000 0.0000 1.0000
vn 0.0000 -0.3743 0.9273
vn 0.0000 0.6952 0.7188
vn 0.0000 0.3743 0.9273
vn 0.0000 0.9152 0.4031
vn -0.1542 0.9152 0.3724
vn -0.1542 -0.9152 0.3724
vn -0.3548 -0.3743 0.8567
vn -0.2751 -0.6952 0.6641
vn -0.3548 0.3743 0.8567
vn -0.3827 0.0000 0.9239
vn -0.2751 0.6952 0.6641
vn -0.6557 -0.3743 0.6557
vn -0.5083 -0.6952 0.5083
vn -0.6557 0.3743 0.6557
vn -0.7071 0.0000 0.7071
vn -0.2850 0.9152 0.2850
vn -0.5083 0.6952 0.5083
vn -0.2850 -0.9152 0.2850
vn -0.6641 -0.6952 0.2751
vn -0.3724 -0.9152 0.1542
vn -0.9239 0.0000 0.3827
vn -0.8567 -0.3743 0.3548
vn -0.6641 0.6952 0.2751
vn -0.8567 0.3743 0.3548
vn -0.3724 0.9152 0.1542
vn -1.0000 0.0000 0.0000
vn -0.9273 -0.3743 0.0000
vn -0.7188 0.6952 0.0000
vn -0.9273 0.3743 0.0000
vn -0.4031 0.9152 0.0000
vn -0.4031 -0.9152 0.0000
vn -0.7188 -0.6952 0.0000
vn -0.3724 -0.9152 -0.1542
vn -0.8567 -0.3743 -0.3548
vn -0.6641 -0.6952 -0.2751
vn -0.8567 0.3743 -0.3548
vn -0.9239 0.0000 -0.3827
vn -0.3724 0.9152 -0.1542
vn -0.6641 0.6952 -0.2751
vn -0.6557 0.3743 -0.6557
vn -0.7071 0.0000 -0.7071
vn -0.2850 0.9152 -0.2850
vn -0.5083 0.6952 -0.5083
vn -0.5083 -0.6952 -0.5083
vn -0.2850 -0.9152 -0.2850
vn -0.6557 -0.3743 -0.6557
vn -0.2751 -0.6952 -0.6641
vn -0.1542 -0.9152 -0.3724
vn -0.3827 0.0000 -0.9239
vn -0.3548 -0.3743 -0.8567
vn -0.2751 0.6952 -0.6641
vn -0.3548 0.3743 -0.8567
vn -0.1542 0.9152 -0.3724
usemtl None
s 1
f 12/19/9 122/20/10 18/21/11 19/22/12
f 11/23/13 121/24/14 16/25/15 17/26/16
f 10/27/17 9/28/18 14/29/19 15/30/20
f 120/31/21 62/32/22 13/33/23
f 84/34/24 12/19/9 19/22/12
f 122/20/10 11/23/13 17/26/16 18/21/11
f 121/24/14 10/27/17 15/30/20 16/25/15
f 9/28/18 120/31/21 13/33/23 14/29/19
f 84/35/24 19/22/12 26/36/25
f 18/21/11 17/26/16 24/37/26 25/38/27
f 16/25/15 15/30/20 22/39/28 23/40/29
f 14/29/19 13/33/23 20/41/30 21/42/31
f 19/22/12 18/21/11 25/38/27 26/36/25
f 17/26/16 16/25/15 23/40/29 24/37/26
f 15/30/20 14/29/19 21/42/31 22/39/28
f 13/33/23 62/43/22 20/41/30
f 23/40/29 22/39/28 29/44/32 30/45/33
f 21/42/31 20/41/30 27/46/34 28/47/35
f 26/36/25 25/38/27 32/48/36 33/49/37
f 24/37/26 23/40/29 30/45/33 31/50/38
f 22/39/28 21/42/31 28/47/35 29/44/32
f 20/41/30 62/51/22 27/46/34
f 84/52/24 26/36/25 33/49/37
f 25/38/27 24/37/26 31/50/38 32/48/36
f 33/49/37 32/48/36 39/53/39 40/54/40
f 31/50/38 30/45/33 37/55/41 38/56/42
f 29/44/32 28/47/35 35/57/43 36/58/44
f 27/46/34 62/59/22 34/60/45
f 84/61/24 33/49/37 40/54/40
f 32/48/36 31/50/38 38/56/42 39/53/39
f 30/45/33 29/44/32 36/58/44 37/55/41
f 28/47/35 27/46/34 34/60/45 35/57/43
f 36/58/44 35/57/43 42/62/46 43/63/47
f 34/60/45 62/64/22 41/65/48
f 84/66/24 40/54/40 47/67/49
f 39/53/39 38/56/42 45/68/50 46/69/51
f 37/55/41 36/58/44 43/63/47 44/70/52
f 35/57/43 34/60/45 41/65/48 42/62/46
f 40/54/40 39/53/39 46/69/51 47/67/49
f 38/56/42 37/55/41 44/70/52 45/68/50
f 84/71/24 47/67/49 54/72/53
f 46/69/51 45/68/50 52/73/54 53/74/55
f 44/70/52 43/63/47 50/75/56 51/76/57
f 42/62/46 41/65/48 48/77/58 49/78/59
f 47/67/49 46/69/51 53/74/55 54/72/53
f 45/68/50 44/70/52 51/76/57 52/73/54
f 43/63/47 42/62/46 49/78/59 50/75/56
f 41/65/48 62/79/22 48/77/58
f 49/78/59 48/77/58 55/80/60 56/81/61
f 54/72/53 53/74/55 60/82/62 61/83/63
f 52/73/54 51/76/57 58/84/64 59/85/65
f 50/75/56 49/78/59 56/81/61 57/86/66
f 48/77/58 62/87/22 55/80/60
f 84/88/24 54/72/53 61/83/63
f 53/74/55 52/73/54 59/85/65 60/82/62
f 51/76/57 50/75/56 57/86/66 58/84/64
f 61/83/63 60/82/62 68/89/67 69/90/68
f 59/85/65 58/84/64 66/91/69 67/92/70
f 57/86/66 56/81/61 64/93/71 65/94/72
f 55/80/60 62/95/22 63/96/73
f 84/97/24 61/83/63 69/90/68
f 60/82/62 59/85/65 67/92/70 68/89/67
f 58/84/64 57/86/66 65/94/72 66/91/69
f 56/81/61 55/80/60 63/96/73 64/93/71
f 63/96/73 62/98/22 70/99/74
f 84/100/24 69/90/68 76/101/75
f 68/89/67 67/92/70 74/102/76 75/103/77
f 66/91/69 65/94/72 72/104/78 73/105/79
f 64/93/71 63/96/73 70/99/74 71/106/80
f 69/90/68 68/89/67 75/103/77 76/101/75
f 67/92/70 66/91/69 73/105/79 74/102/76
f 65/94/72 64/93/71 71/106/80 72/104/78
f 75/103/77 74/102/76 81/107/81 82/108/82
f 73/105/79 72/104/78 79/109/83 80/110/84
f 71/106/80 70/99/74 77/111/85 78/112/86
f 76/101/75 75/103/77 82/108/82 83/113/87
f 74/102/76 73/105/79 80/110/84 81/107/81
f 72/104/78 71/106/80 78/112/86 79/109/83
f 70/99/74 62/114/22 77/111/85
f 84/115/24 76/101/75 83/113/87
f 83/113/87 82/108/82 90/116/88 91/117/89
f 81/107/81 80/110/84 88/118/90 89/119/91
f 79/109/83 78/112/86 86/120/92 87/121/93
f 77/111/85 62/122/22 85/123/94
f 84/124/24 83/113/87 91/117/89
f 82/108/82 81/107/81 89/119/91 90/116/88
f 80/110/84 79/109/83 87/121/93 88/118/90
f 78/112/86 77/111/85 85/123/94 86/120/92
f 89/119/91 88/118/90 95/125/95 96/126/96
f 87/121/93 86/120/92 93/127/97 94/128/98
f 85/123/94 62/129/22 92/130/99
f 84/131/24 91/117/89 98/132/100
f 90/116/88 89/119/91 96/126/96 97/133/101
f 88/118/90 87/121/93 94/128/98 95/125/95
f 86/120/92 85/123/94 92/130/99 93/127/97
f 91/117/89 90/116/88 97/133/101 98/132/100
f 84/134/24 98/135/100 105/136/102
f 97/137/101 96/138/96 103/139/103 104/140/104
f 95/141/95 94/142/98 101/143/105 102/144/106
f 93/145/97 92/146/99 99/147/107 100/148/108
f 98/135/100 97/137/101 104/140/104 105/136/102
f 96/138/96 95/141/95 102/144/106 103/139/103
f 94/142/98 93/145/97 100/148/108 101/143/105
f 92/146/99 62/149/22 99/147/107
f 102/144/106 101/143/105 108/150/109 109/151/110
f 100/148/108 99/147/107 106/152/111 107/153/112
f 105/136/102 104/140/104 111/154/113 112/155/114
f 103/139/103 102/144/106 109/151/110 110/156/115
f 101/143/105 100/148/108 107/153/112 108/150/109
f 99/147/107 62/157/22 106/152/111
f 84/158/24 105/136/102 112/155/114
f 104/140/104 103/139/103 110/156/115 111/154/113
f 112/155/114 111/154/113 118/159/116 119/160/117
f 110/156/115 109/151/110 116/161/118 117/162/119
f 108/150/109 107/153/112 114/163/120 115/164/121
f 106/152/111 62/165/22 113/166/122
f 84/167/24 112/155/114 119/160/117
f 111/154/113 110/156/115 117/162/119 118/159/116
f 109/151/110 108/150/109 115/164/121 116/161/118
f 107/153/112 106/152/111 113/166/122 114/163/120
f 115/164/121 114/163/120 9/28/18 10/27/17
f 113/166/122 62/168/22 120/31/21
f 84/169/24 119/160/117 12/19/9
f 118/159/116 117/162/119 11/23/13 122/20/10
f 116/161/118 115/164/121 10/27/17 121/24/14
f 114/163/120 113/166/122 120/31/21 9/28/18
f 119/160/117 118/159/116 122/20/10 12/19/9
f 117/162/119 116/161/118 121/24/14 11/23/13
