# Blender v2.93.5 OBJ File: 'widget-piece.blend'
# www.blender.org
mtllib widget-piece.mtl
o Cylinder
v 0.000000 0.000000 -0.050000
v 0.000000 1.000000 -0.050000
v 0.050000 0.000000 0.000000
v 0.050000 1.000000 0.000000
v -0.000000 0.000000 0.050000
v -0.000000 1.000000 0.050000
v -0.050000 0.000000 -0.000000
v -0.050000 1.000000 -0.000000
vt 1.000000 0.500000
vt 1.000000 1.000000
vt 0.750000 1.000000
vt 0.750000 0.500000
vt 0.500000 1.000000
vt 0.500000 0.500000
vt 0.250000 1.000000
vt 0.250000 0.500000
vt 0.000000 1.000000
vt 0.000000 0.500000
vn 0.0000 0.0000 -1.0000
vn 1.0000 0.0000 0.0000
vn 0.0000 0.0000 1.0000
vn -1.0000 0.0000 0.0000
usemtl None
s 1
f 1/1/1 2/2/1 4/3/2 3/4/2
f 3/4/2 4/3/2 6/5/3 5/6/3
f 5/6/3 6/5/3 8/7/4 7/8/4
f 7/8/4 8/7/4 2/9/1 1/10/1
o Cone
v 0.000000 0.990863 -0.200000
v 0.141421 0.990863 -0.141421
v 0.200000 0.990863 0.000000
v 0.141421 0.990863 0.141421
v -0.000000 0.990863 0.200000
v -0.141421 0.990863 0.141421
v -0.200000 0.990863 -0.000000
v -0.141421 0.990863 -0.141421
v 0.000000 1.390863 0.000000
vt 0.250000 0.490000
vt 0.250000 0.250000
vt 0.419706 0.419706
vt 0.490000 0.250000
vt 0.419706 0.080294
vt 0.250000 0.010000
vt 0.080294 0.080294
vt 0.010000 0.250000
vt 0.080294 0.419706
vn 0.0000 0.4472 -0.8944
vn 0.0000 1.0000 0.0000
vn 0.6324 0.4472 -0.6324
vn 0.8944 0.4472 0.0000
vn 0.6324 0.4472 0.6324
vn 0.0000 0.4472 0.8944
vn -0.6324 0.4472 0.6324
vn -0.8944 0.4472 0.0000
vn -0.6324 0.4472 -0.6324
usemtl None
s 1
f 9/11/5 17/12/6 10/13/7
f 10/13/7 17/12/6 11/14/8
f 11/14/8 17/12/6 12/15/9
f 12/15/9 17/12/6 13/16/10
f 13/16/10 17/12/6 14/17/11
f 14/17/11 17/12/6 15/18/12
f 15/18/12 17/12/6 16/19/13
f 16/19/13 17/12/6 9/11/5
